/* XPM */
static char *_4be6a650bc240dda695db660ca1ee28qdqton0NTEN4nldU[] = {
/* columns rows colors chars-per-pixel */
"64 64 117 2 ",
"   c None",
".  c #464545",
"X  c #4C4C4C",
"o  c #504F4F",
"O  c #535353",
"+  c #585757",
"@  c #5C5B5B",
"#  c #605F5F",
"$  c #636363",
"%  c #686767",
"&  c #6C6C6C",
"*  c #706F6E",
"=  c #747474",
"-  c #787777",
";  c #7C7B7B",
":  c #807F7F",
">  c #848484",
",  c #888787",
"<  c #8C8C8C",
"1  c #8F8F90",
"2  c #939393",
"3  c #999894",
"4  c #9C9C9C",
"5  c #A09F9F",
"6  c gray63",
"7  c #A0A0A0",
"8  c #A2A2A1",
"9  c #A2A2A2",
"0  c gray64",
"q  c #A4A3A3",
"w  c #A4A4A4",
"e  c #A5A4A4",
"r  c #A5A5A5",
"t  c gray65",
"y  c #A7A6A6",
"u  c #A7A7A6",
"i  c #A7A7A7",
"p  c #A8A7A7",
"a  c #ACADA3",
"s  c gray66",
"d  c #A9A8A8",
"f  c #A9A9A9",
"g  c #AAAAAA",
"h  c #ABAAAA",
"j  c gray67",
"k  c #ACABA8",
"l  c #ACACAC",
"z  c gray68",
"x  c #AEADAD",
"c  c #AEAEAD",
"v  c #AEAEAE",
"b  c #AFAEAE",
"n  c #AFAFAF",
"m  c #B0AFAF",
"M  c #B5B6AF",
"N  c gray69",
"B  c #B1B0B0",
"V  c #B1B1B1",
"C  c #B2B2B2",
"Z  c #B3B2B2",
"A  c #B3B3B2",
"S  c gray70",
"D  c #B4B3B3",
"F  c #B4B4B4",
"G  c #B5B4B4",
"H  c gray71",
"J  c #B6B5B5",
"K  c #B6B6B6",
"L  c #B7B7B6",
"P  c #B7B7B7",
"I  c #B8B7B7",
"U  c #B8B8B3",
"Y  c #BCBDB7",
"T  c gray72",
"R  c #B9B9B9",
"E  c #BABAB8",
"W  c gray73",
"Q  c #BBBBBB",
"!  c #BCBCBC",
"~  c #BDBCBC",
"^  c gray74",
"/  c gray",
"(  c #BFBEBE",
")  c gray75",
"_  c #C0BFBF",
"`  c #BFC0B7",
"'  c #C0C0C0",
"]  c #C1C0C0",
"[  c #C1C1C1",
"{  c gray76",
"}  c #C3C2C2",
"|  c #C2C3C3",
" . c #C3C3C3",
".. c #C4C3C3",
"X. c #C3C4C4",
"o. c gray77",
"O. c #C5C4C4",
"+. c #C5C5C5",
"@. c #C6C6C6",
"#. c #C7C6C6",
"$. c gray78",
"%. c #C8C7C7",
"&. c #C8C8C8",
"*. c #C9C8C8",
"=. c gray79",
"-. c #CACACA",
";. c #CBCBCB",
":. c gray80",
">. c #CDCDCD",
",. c #CECECE",
"<. c #CFCECE",
"1. c gray81",
"2. c #D0CFCF",
"3. c #D0D0D0",
"4. c gray82",
"5. c #D2D2D2",
"6. c #D5D5D5",
/* pixels */
"      Y T L L L L L L L L L L L L L L L L L L L L L L L L L L L L L L L L L L L L L L L L L L L L L L L L L L L L L L L M       ",
"  ` T N v f f f f v f f f f f f f f f f f f f f f f f f f f f f f f f f f f f f f f f f f f f f f f j j f f f f f f f v v v a   ",
"  L v f f f f f f t t f f f f f f f f f f f f f f f f t t t t t t t t t t t f f f f f f f f f f f f f f f f f f f f f f f f t   ",
"U v f f f f 4 3 3 4 4 t f f f f f f f f i i s t t t t t t t t t t t t t t t t t i f f f f f f f f f f f f f f f f f f f f f t 3 ",
"N f f f f 7 7 T ) ) 7 4 f f f f f f f f t t t t t t t t t t t t t t t t t t t t t i t t f f f f f f f f f f f f f f f f f f t 2 ",
"N f f f f 4 t 3 - = % - 7 f f f f f f t t t t t t t t 7 7 7 7 7 7 7 0 0 7 t t t t t t t t t f f f f f f f f f f f f f f f f t 2 ",
"N f f f f 7 < $ @ $ % - 4 f f f f t t t t t t t 7 7 7 7 7 7 7 7 7 7 7 7 7 7 4 4 7 t t t t t t t f f f t f f f f f f f f f f t 2 ",
"N f f f f f f f v v N v v f f f t t 4 2 2 3 3 4 4 4 7 7 7 7 7 4 4 4 7 4 3 < 4 3 3 4 7 t t t t t t t 4 4 4 t f f f f f f f f t 2 ",
"N f f f f f f f f f f f f f p 7 3 2 4 N ) N f 7 4 2 2 2 3 4 4 4 4 4 4 3 < f L t 4 < 4 7 7 t t t t 2 5 T 4 4 t f f f f f f f t 2 ",
"N f f f f f f f f f f f t 4 2 2 t T -.2.-._ [ [ [ ) L f 4 3 2 3 4 4 4 4 2 - % & $ - 7 7 7 7 7 7 2 t -.v > > 4 f f f f f f f t 2 ",
"N f f f f f f f f f 7 3 2 4 N [ -.-.o.-.o.T T T ) ) [ o.o.[ t 2 4 4 4 4 4 4 - O % 7 7 4 7 7 7 2 t -.t % O - f f f f f f f f t 2 ",
"N f f f f f f f 4 2 4 v [ -.o.o.[ [ X.o.[ N N N L L T ) v 2 & < 4 4 4 4 4 4 4 3 7 4 4 4 4 4 4 4 N 3 @ X > v f f f f f f f f t 2 ",
"N f f f f f f 4 7 ) >.3.-.o.[ [ [ [ [ [ ) n v v N N t < = % & 4 3 3 3 3 3 3 3 4 4 4 4 4 4 4 4 4 - @ O < v f t f f f f f f f t 2 ",
"N f f f f f f 4 N -.2.>.o.o.[ [ [ [ [ o.[ v t 4 3 ; % $ % $ > 4 2 2 3 3 3 3 3 3 4 4 4 4 4 4 4 7 7 4 4 f t t t f f f f f f f t 2 ",
"N f f f f f f 4 N T [ -.-.o.[ [ ....[ D 3 = $ @ O O @ % % % 3 2 2 2 2 2 2 2 2 3 3 3 3 4 4 4 4 4 4 7 7 7 7 t t t f f f f f f t 2 ",
"N f f f f f t 4 L L L L [ o.o.[ T t < % O X X X X O @ % $ - 3 < < < < 1 1 2 2 2 2 3 3 3 3 4 4 4 4 4 7 7 7 t t t t f f f f f t 2 ",
"N f f f f f t 4 T L N f f N f 3 ; % O X X X X X X + @ @ @ < 1 < < < < < < < 2 2 2 2 2 3 3 4 4 4 4 4 4 7 7 7 t t t t t f f f t 2 ",
"N f f f f f 7 4 T L N f < % @ @ + X X X X X X X O + + @ ; 2 < < < < < < < < < < 2 2 2 2 3 3 4 4 4 4 4 4 7 7 7 t t 4 4 4 t f t 2 ",
"N f f f f f 4 7 T L f > # + + + X X X X X X X O X O = 2 2 < < < < < < < < < > > > > < < 2 3 3 4 4 4 4 4 4 7 7 t 7 3 4 3 4 f t 2 ",
"N f f f f t 4 t T 7 ; % @ @ @ + O X X X X o X X % < 3 < > > > > > > , > > ; ; 7 7 4 2 < > > < < 2 3 4 4 4 7 7 7 t 4 ; % > v t 2 ",
"N f f f t t 4 7 < = & & % $ $ @ + X X X X X @ > 3 < > > > > > > > > > ; - 2 ) >.[ [ [ [ T N f 4 3 1 < 3 4 4 7 7 t t > @ 4 f t < ",
"N f f f t t t 4 ; & % % % % % % # + X . O - 2 2 < > > > > > > > > ; - > N >.-.$.) T T ) ) [ o.o.o.[ L 3 4 4 7 7 7 t 4 < v f t 2 ",
"N f f f t t t t t 7 3 > - % % $ $ X X % < 3 < > > > > > > > > > - - 4 >.6.>.o.o.T N L L L I T ) [ [ 4 > 4 4 4 7 7 7 t f f f t 2 ",
"N f f t t t 7 7 7 4 7 7 4 3 < - $ $ < 3 < < > > > > > > > ; ; ; - 4 T [ [ [ [ [ T N m m N N L T ) 7 > > 3 4 4 7 7 7 t t t f t 2 ",
"N f f t t t 7 7 7 4 4 4 4 4 4 4 3 3 2 < < > > > > > : ; ; ; ; ; ; > ; > , < < > > 2 t v v N N L 4 > > > < 4 4 4 7 7 t t t f t 2 ",
"N f f t t t 7 7 4 4 4 4 4 3 2 2 2 < < < > > > > > > ; ; ; ; ; ; - ; ; - ; > ; - = & = - ; > 2 2 ; > > > > 4 4 4 7 7 t t t f t 2 ",
"N f f t t t 7 7 4 3 2 3 3 3 2 2 < < < < > > > > > ; ; - ; - - - - - - ; - : > ; - = $ O O O + @ & ; > > > 4 4 4 7 7 t t t f t 2 ",
"N f t t t 7 7 4 < 3 7 < < < 2 2 < < < , > > > > ; ; ; - - - - - - - - - ; ; ; > > - $ @ + O O O @ & > > > 2 4 4 7 7 t t t t t 2 ",
"N f t t t 7 7 4 2 f v t 7 2 < < < < < > > > > > ; - - - - - - - - - - - - ; - ; > - % $ @ @ + + + @ & ; ; > 4 4 4 7 7 t t t t 2 ",
"N f t t t 7 7 5 4 - - - * & < 2 < < < > > > > - * - - - - - - - - - - - - - ; ; - & % % $ $ @ @ @ + @ % = - 4 4 4 7 7 t t t t < ",
"N f f t t 7 7 7 4 < & X O > 4 2 < < < > > - = > t 4 - - - - - = - - - - - - - > - % % % $ # @ @ @ O X X O @ < 4 4 7 7 t t t t < ",
"N f t t t 7 7 4 4 4 - = 4 4 2 < < < < > ; 3 L $.) > - - - - = = = - - - - - - ; > < < < < < < < < < > ; - - 2 4 4 7 7 t t t t < ",
"N f t t t 7 7 4 4 4 4 4 4 2 2 < < < < ; 4 ) 4 - % @ & - - - = = = = = - - - - ; ; > > > > < < < 2 3 3 4 4 7 4 4 4 7 7 t t t t < ",
"N f t t t 0 7 4 4 4 4 4 3 3 2 < < < < > < % + O @ $ - ; - - - = = = - - - - ; ; ; > > > > < < < < 2 2 3 3 4 4 4 4 7 7 t t t t < ",
"N f t t t 7 7 7 4 4 4 4 3 3 2 < < < < > < > < > < > > - - - - - = = - - - - - ; ; > > > > < < < < 2 2 3 4 4 4 4 7 7 7 t t t t < ",
"N f t 4 4 7 7 7 4 4 4 4 3 3 2 1 < < < < < > > > ; ; - - - - - - - - - - - - ; ; : > > > > < < < < 2 2 3 4 4 4 4 4 7 7 t t t t 2 ",
"N f 4 4 7 3 4 7 4 4 4 4 3 3 2 2 < < < < > > > > ; ; ; - - - - - - - - - - - ; ; > > > > > < < < 1 2 2 3 3 1 3 4 7 7 7 t t t t 2 ",
"N f 3 v 4 > < 4 4 4 4 4 3 3 2 2 < < < < > > > > > ; ; - - - - - - - - - ; ; ; : > > > > > < < < 1 2 3 3 < 4 2 3 4 7 7 t t f t 2 ",
"N f 4 - + + - 4 4 4 4 4 1 < 1 2 2 < < < < > > > > ; ; ; ; ; - - - - - ; ; ; : > > - - > > > < < 2 2 3 3 2 , > > 4 7 t t t f t 2 ",
"N f f 4 > 4 t t 7 4 4 < 2 4 < > < < < < < > > > > > ; ; ; - - - - ; ; ; : : ; - - < N [ f 2 > < 2 2 3 4 4 < $ ; 7 7 t t t f t 2 ",
"N f f f f f t 7 7 4 2 < ) T v f 4 < > > < < > > > > > > - ; t - ; ; ; ; - = - 3 T >.3.o.L L v 3 < < 3 4 4 4 4 t 7 7 t t t f t 2 ",
"N f f f t t t 7 7 3 < ) o.T v L T L 7 < > > > > > > > > - < & % < ; - = > t [ -.-.%.-.[ v N L L v 4 < 2 4 4 7 7 7 7 t t t f t 2 ",
"N f f f t t t 7 4 < ! >.[ ) v N L T T T v 4 > > > > > > > - & < > - < L >.3.-.o.o.o.o.T p f v N N L v 4 2 3 4 7 7 t t t t f t 2 ",
"N f f f t t t 4 < L 3.-.[ ) v f v N L L T T t < < > > > > > < > > > t [ >.3.>.o.o.[ ..L 4 7 t f v N L L N 7 3 4 7 t t t t f t 2 ",
"N f f f f t t 2 N 3.-.o.[ ) v t t f f 7 3 > % > 2 < < > > > > > > > < 3 7 N ) o.o.o.o.D 4 4 4 7 t f v N N L N 7 4 7 t f f f t 2 ",
"N f f f f f 4 t 3.>.-.o.[ [ N 4 < ; & % % @ & 3 < < < < < , < < < > > 2 3 2 2 4 f T L 4 2 4 4 4 4 7 t f v N L L t 4 f f f f t 2 ",
"N f f f f f 4 L o.-.-.[ N < & $ + O + @ $ $ 2 2 < < < < < < < < < < < < 3 2 2 > ; > ; = - > 2 4 4 4 4 7 f v t 2 = 3 v f f f t 2 ",
"N f f f f t 4 ) ) T v < $ O o O O + @ $ @ > 4 2 2 < < < < < < < < < < < 2 3 2 < > - % & = = - > 2 4 4 4 3 > - = % 7 f f f f t 2 ",
"N f f f f t 4 7 4 2 - @ + + O O O @ $ @ & 4 3 2 2 2 2 1 < < < < < < < < 2 3 2 1 > = @ @ $ % & = - > < - % % & & = f f f f f t 2 ",
"N f f f f f t 2 < > % % @ @ @ + + @ @ @ 3 4 3 3 3 2 2 2 2 2 2 2 2 2 2 2 < 2 2 2 > % @ @ @ @ @ % % * % + @ % & % > v f f f f t 2 ",
"N f f f f f f 7 > & % $ $ # @ @ O + X ; 7 4 4 3 3 3 3 3 2 2 2 2 2 2 2 3 2 2 2 > = % % @ @ @ @ @ @ # @ @ $ % * % 2 v f f f f t 2 ",
"N f f f f f f f 3 ; - = & % $ @ O X $ 7 4 4 4 4 4 4 3 3 3 3 3 3 3 3 3 3 3 2 > = = = & % % $ @ @ @ + @ @ $ & & % 4 v f f f f t 2 ",
"N f f f f f f f v v v v f t 7 4 3 2 4 7 4 4 4 4 4 4 4 3 4 3 3 3 3 3 4 4 4 4 < = % & = & & % % $ @ @ @ @ % & & * f f f f f f t 2 ",
"N f f f f f f f f f f t t t t t t t 7 4 4 4 4 4 4 4 4 4 4 4 4 4 4 4 4 4 4 4 4 4 2 ; & % & = & & % % @ @ % & % ; v f f f f f t 2 ",
"N f f f f f f f f f f f t t t t t 7 7 7 7 7 4 4 4 4 3 4 4 4 4 4 4 4 4 4 4 4 4 4 7 7 4 < - % & = & & % @ $ % % < v f f f f f t 2 ",
"N f f f f f f f f f f f f f t t t t t 0 7 7 7 7 4 2 2 2 3 4 4 4 4 4 4 4 4 4 4 4 7 7 7 t t 3 > & % & % $ @ $ @ 3 v f f f f f t 2 ",
"N f f f f f f f f f 7 7 t f f t t t t t 7 7 7 7 4 3 L 7 3 2 3 4 4 4 4 4 7 7 7 7 7 7 7 7 t f f 7 < - % @ @ @ @ 7 f f f f f f t 2 ",
"N f f f f f f f t 4 4 4 4 f f f t f t t t t t 7 3 7 f 4 t t 4 3 4 7 7 7 7 7 7 7 7 7 t t t t t f v f 4 - @ X $ v f f f f f f t 2 ",
"N f f f f f f f 4 4 < - - t f f f f t t t t t t 4 < - - - - - ; 4 t 7 7 7 7 t t t t t t t t f f f f v v t > < v f f f f f f t 1 ",
"v f f f f f f f 7 < > > 2 f f f f f f f t t t t t 7 > % X X = 4 f t t t t t t t t t t t f f f f f f f f f v v f f f f f f f t < ",
"k f f f f f f f f v N N v f f f f f f f f f f t t t 7 = - 4 v f t t t t t t t t f f f f f f f f f f f f f f f f f f f f f f 4 ; ",
"  7 t f f f f f f f f f f f f f f f f f f f f f f f f f v f t t i t t t f f f f f f f f f f f f f f f f f f f f f f f f f 7 >   ",
"  2 3 4 t t t t t t t t t t t t t t t t t t t t t t t t t 7 7 t t t t 0 t t t t t t t t t t t t t t t t t t t t t t t 7 4 > *   ",
"      > > > > > > > > > > > > > > > > > > > > > > > > > > > > > > > > > > > > > > > > > > > > > > > > > > > > > > > > : -       "
};
