/* XPM */
static char *result[] = {
/* columns rows colors chars-per-pixel */
"64 64 188 2 ",
"   c #360E13",
".  c #3D1215",
"X  c #431417",
"o  c #471618",
"O  c #4A1818",
"+  c #4B1719",
"@  c #521C1A",
"#  c #591F1C",
"$  c #5E231C",
"%  c #62251D",
"&  c #702E1F",
"*  c #72301F",
"=  c #722D21",
"-  c #7F2D27",
";  c #783122",
":  c #8A341F",
">  c #853426",
",  c #883727",
"<  c #863B23",
"1  c #8C3D26",
"2  c #8C3E2B",
"3  c #953E20",
"4  c #AF591E",
"5  c #B15C1F",
"6  c #AE731F",
"7  c #B3761D",
"8  c #B3791F",
"9  c #BB7D1D",
"0  c #8D4125",
"q  c #944326",
"w  c #994724",
"e  c #964C24",
"r  c #9C4B26",
"t  c #9B5423",
"y  c #9D5923",
"u  c #9B582E",
"i  c #9A5839",
"p  c #944C3A",
"a  c #A24E26",
"s  c #A55424",
"d  c #A95626",
"f  c #A25B23",
"g  c #AD5B25",
"h  c #A5552A",
"j  c #B15D26",
"k  c #A56421",
"l  c #AD6423",
"z  c #B46225",
"x  c #B96526",
"c  c #B56C23",
"v  c #BE6B25",
"b  c #B7662A",
"n  c #AC7120",
"m  c #B27420",
"M  c #BF7422",
"N  c #B57C23",
"B  c #BB7C21",
"V  c #B86831",
"C  c #B26535",
"Z  c #B37F39",
"A  c #C66D1B",
"S  c #D87D1A",
"D  c #C67D1F",
"F  c #C46E26",
"G  c #C47125",
"H  c #CA7526",
"J  c #C67B24",
"K  c #CB7E24",
"L  c #D27D26",
"P  c #CB7C34",
"I  c #9E5E48",
"U  c #A76B5B",
"Y  c #C47C46",
"T  c #BC841D",
"R  c #BF8C1D",
"E  c #C38B1E",
"W  c #DB811D",
"Q  c #DA8D1D",
"!  c #CB941C",
"~  c #CD9B1C",
"^  c #C3921C",
"/  c #D59C1D",
"(  c #DB9E1E",
")  c #D9941E",
"_  c #E09A1F",
"`  c #D4A51C",
"'  c #DDA21F",
"]  c #DCAC1C",
"[  c #D5A816",
"{  c #DEB219",
"}  c #DFB815",
"|  c #E1A31C",
" . c #E4AA1D",
".. c #E4BA15",
"X. c #E3B31C",
"o. c #E4BB19",
"O. c #E3B313",
"+. c #CE8323",
"@. c #C88821",
"#. c #D48424",
"$. c #DC8425",
"%. c #D78C23",
"&. c #DC8B24",
"*. c #DD8C2A",
"=. c #DD8729",
"-. c #D59421",
";. c #DC9322",
":. c #DC9921",
">. c #DF922E",
",. c #DD8C33",
"<. c #DF8F38",
"1. c #DF9034",
"2. c #DF913B",
"3. c #E09722",
"4. c #E09A22",
"5. c #E1952D",
"6. c #E29F32",
"7. c #E09134",
"8. c #CDA325",
"9. c #DDA724",
"0. c #DEB625",
"q. c #E2A120",
"w. c #E3AC24",
"e. c #E1A129",
"r. c #E5BC24",
"t. c #E4B332",
"y. c #E7B43C",
"u. c #E5C417",
"i. c #E5C019",
"p. c #E7C42A",
"a. c #E7C43B",
"s. c #B58555",
"d. c #B98B74",
"f. c #D79557",
"g. c #D99046",
"h. c #E1994A",
"j. c #E39C52",
"k. c #CEA843",
"l. c #E5A544",
"z. c #E4A849",
"x. c #E4A25B",
"c. c #E6A855",
"v. c #EBBE5E",
"b. c #D49866",
"n. c #D2B470",
"m. c #E6A765",
"M. c #E5A96A",
"N. c #E6A862",
"B. c #E9B67A",
"V. c #E8AF71",
"C. c #E9C344",
"Z. c #E7C649",
"A. c #EAD14A",
"S. c #EED567",
"D. c #EEC47E",
"F. c #EED174",
"G. c #E7D07E",
"H. c #F0DD7B",
"J. c #EBC269",
"K. c #C19889",
"L. c #CCA698",
"P. c #D8BF9B",
"I. c #E4B383",
"U. c #EBBA87",
"Y. c #DAB4A0",
"T. c #E6BFA1",
"R. c #EDC28A",
"E. c #EDC294",
"W. c #EDC69B",
"Q. c #F1D79A",
"!. c #F1DE8C",
"~. c #F1E08D",
"^. c #F3E291",
"/. c #DDC5B4",
"(. c #EECCAA",
"). c #EDDCAF",
"_. c #F3DBA1",
"`. c #F2D5AD",
"'. c #E2C5B5",
"]. c #EFD5BE",
"[. c #F3DAB8",
"{. c #F1CFAA",
"}. c #F4E5AE",
"|. c #F6E9AB",
" X c #F5E0BE",
".X c #F0DFC8",
"XX c #F6E6C5",
"oX c None",
/* pixels */
"oXoXoXoXoXoXoXoXoXoXoXoXoXoXoXoXoXoXoXoXoXoXoXoXoXoXoXoXoXoXoXoXoXoXoXoXoXoXoXoXoXoXoXoXoXoXoXoXoXoXoXoXoXoXoXoXoXoXoXoXoXoXoXoX",
"oXoXoXoXoXoXoXoXoXoXoXoXoXoXoXoXoXoXoXoXoXoXoXoXoXoXoXoXoXoXoXoXoXoXoXoXoXoXoXoXoXoXoXoXoXoXoXoXoXoXoXoXoXoXoXoXoXoXoXoXoXoXoXoX",
"oXoXoXoXoXoXoXoXoXoXoXoXoXoXoXoXoXoXoXoXoXoXoXoXoXoXoXoXoXoXoXoXoXoXoXoXoXoXoXoXoXoXoXoXoXoXoXoXoXoXoXoXoXoXoXoXoXoXoXoXoXoXoXoX",
"oXoXoXoXoXoXoXoXoXoXoXoXoXoXoXoXoXoXoXoXoXoXoXoXoXoXoXoXoXoXoXoXoXoXoXoXoXoXoXoXoXoXoXoXoXoXoXoXoXoXoXoXoXoXoXoXoXoXoXoXoXoXoXoX",
"oXoXoXoXoXoXoXoXoXoXoXoXoXoXoXoXoXoXoXoXoXoXoXoXoXoXoXoXoXoXoXoXoXoXoXoXoXoXoXoXoXoXoXoXoXoXoXoXoXoXoXoXoXoXoXoXoXoXoXoXoXoXoXoX",
"oXoXoXoXoXoXoXoXoXoXoXoXoXoXoXoXoXoXoXoXoXoXoXoXoXoXoXoXoXoXoXoXoXoXoXoXoXoXoXoXoXoXoXoXoXoXoXoXoXoXoXoXoXoXoXoXoXoXoXoXoXoXoXoX",
"oXoXoXoXoXoXoXoXoXoXoXoXoXoXoXoXoXoXoXoXoXoXoXoXoXoXoXoXoXoXoXoXoXoXoXoXoXoXoXoXoXoXoXoXoXoXoXoXoXoXoXoXoXoXoXoXoXoXoXoXoXoXoXoX",
"oXoXoXoXoXoXoXoXoX$.$.W W S oXoXoXoXoXoXoXoXoXoXoXoXoXoXoXoXoXoXoXoXoXoXoXoXoXoXoXoXoXoXoXoXoXoXoXoXoXoXoXoXoXoXoXoXoXoXoXoXoXoX",
"oXoXoXoXoXoXoXoX=.=.=.&.$.=.$.oXoXoXoXoXoXoXoXoXoXoXoXoXoXoXoXoXoXoXoXoXoXoXoXoXoXoXoXoXoXoXoXoXoXoXoXoXoXoXoXoXoXoXoXoXoXoXoXoX",
"oXoXoXoXoXoXoX$.=.$.=.,.7.2.2.oXoXoXoXoXoXoXoXoXoXoXoXoXoXoXoXoXoXoXoXoXoXoXoXoXoXoXoXoXoXoXoXoXoXoXoXoXoXoXoXoXoXoXoXoXoXoXoXoX",
"oXoXoXoXoXoXoXW $.=.1.h.x.m.m.x.oXoXoXoXoXoXoXoXoXoXoXoXoXoXoXoXoXoXoXoXoXoXoXoXoXoXoXoXoXoXoXoXoXoXoXoXoXoXoXoXoXoXoXoXoXoXoXoX",
"oXoXoXoXoXoXoXS W =.h.M.U.W.U.V.j.,.oXoXoXoXoXoXoXoXoXoXoXoXoXoXoXoXoXoXoXoXoXoXoXoXoXoXoXoXoXoXoXoXoXoXoXoXoXoXoXoXoXoXoXoXoXoX",
"oXoXoXoXoXoXoXS =.7.x.U.{.[.{.U.j.,.S oXoXoXoXoXoXoXoXoXoXoXoXoXoXoXoXoXoXoXoXoXoXoXoXoXoXoXoXoXoXoXoXoXoXoXoXoXoXoXoXoXoXoXoXoX",
"oXoXoXoXoXoXoX<.<.h.V.W..XXX`.B.z.5.&.oXoXoXoXoXoXoXoXoXoXoXoXoXoXoXoXoXoXoXoXoXoXoXoXoXoXoXoXoXoXoXoXoXoXoXoXoXoXoXoXoXoXoXoXoX",
"oXoXoXoXoXoXh.x.m.V.R.Q.}.}.!.J.y.5._ Q oXoXoXoXoXoXoXoXoXoXoXoXoXoXoXoXoXoXoXoXoXoXoXoXoXoXoXoXoXoXoXoXoXoXoXoXoXoXoXoXoXoXoXoX",
"oXoXoXoXoX7.x.B.W.W.Q.Q.^.H.S.Z.t. ._ ( &.=.oXoXoXoXoXoXoXoXoXoXoXoXoXoXoXoXoXoXoXoXoXoXoXoXoXoXoXoXoXoXoXoXoXoXoXoXoXoXoXoXoXoX",
"oXoXoXoX=.h.N.U.[. X}.!.S.A.a.p.p.o. .' ;.=.=.oXoXoXoXoXoXoXoXoXoXoXoXoXoXoXoXoXoXoXoXoXoXoXoXoXoXoXoXoXoXoXoXoXoXoXoXoXoXoXoXoX",
"oXoXoXS $.7.N.W. XXX|.H.A.p.u...o.o. .| :.&.=.oXoXoXoXoXoXoXoXoXoXoXoXoXoXoXoXoXoXoXoXoXoXoXoXoXoXoXoXoXoXoXoXoXoXoXoXoXoXoXoXoX",
"oXoXoXW $.7.c.R._.|.^.S.y.X.O.O.O.X. .| q.3.3.3.oXoXoXoXoXoXoXoXoXoXoXoXoXoXoXoXoXoXoXoXoXoXoXoXoXoXoXoXoXoXoXoXoXoXoXoXoXoXoXoX",
"oXoXoXW $.>.l.v.F.H.S.Z.t.| | | |  .w. . . .| _ &.=.oXoXoXoXoXoXoXoXoXoXoXoXoXoXoXoXoXoXoXoXoXoXoXoXoXoXoXoXoXoXoXoXoXoXoXoXoXoX",
"oXoXoX$.=.*.6.y.C.C.a.t.6.3.3.&.3.( 9. .X.X. .| 3.=.$.oXoXoXoXoXoXoXoXoXoXoXoXoXoXoXoXoXoXoXoXoXoXoXoXoXoXoXoXoXoXoXoXoXoXoXoXoX",
"oXoXoX$.$.&.:.9.] X.0.:.;.&.$.L L #.%./ ] ] ] 9.:.&.$.oXoXoXoXoXoXoXoXoXoXoXoXoXoXoXoXoXoXoXoXoXoXoXoXoXoXoXoXoXoXoXoXoXoXoXoXoX",
"oXoXoXoX=.$.Q ! ! ! ! Q &.$.L L H G J @.! ~ / / :.:.%.J oXoXoXoXoXoXoXoXoXoXoXoXoXoXoXoXoXoXoXoXoXoXoXoXoXoXoXoXoXoXoXoXoXoXoXoX",
"oXoXoXoXoXoXD 9 7 7 D E $.L L F x j g l n 8 E ~ / ' / @.f 1 oXoXoXoXoXoXoXoXoXoXoXoXoXoXoXoXoXoXoXoXoXoXoXoXoXoXoXoXoXoXoXoXoXoX",
"oXoXoXoXoXoXoXf y 4 k M K L H b d a w e t k m ^ ` ] ~ B y 0 > oXoXoXoXoXoXoXoXoXoXoXoXoXoXoXoXoXoXoXoXoXoXoXoXoXoXoXoXoXoXoXoXoX",
"oXoXoXoXoXoXoX1 1 w s x H H F j r 1 , , < w k T ~ ` ! N f q , oXoXoXoXoXoXoXoXoXoXoXoXoXoXoXoXoXoXoXoXoXoXoXoXoXoXoXoXoXoXoXoXoX",
"oXoXoXoXoXoXoXoX> 1 r g x v x d q , > - > 0 y N R ^ R m l s r q oXoXoXoXoXoXoXoXoXoXoXoXoXoXoXoXoXoXoXoXoXoXoXoXoXoXoXoXoXoXoXoX",
"oXoXoXoXoXoXoXoXoXoXq h d d d r q oXoXoXoX< t k n m m c x z g a w 1 w 5 A S W W L $.$.$.$.oXoXoXoXoXoXoXoXoXoXoXoXoXoXoXoXoXoXoX",
"oXoXoXoXoXoXoXoXoXoXoXq r w w q oXoXoXoXoXoXoXe y y l x v G x d w 2 w j H L $.&.=.=.=.$.$.$.$.oXoXoXoXoXoXoXoXoXoXoXoXoXoXoXoXoX",
"oXoXoXoXoXoXoXoXoXoXoX1 1 2 2 oXoXoXoXoXoXoXoX< 0 q h j F H v g a r h V P <.7.5.*.*.&.&.&.&.$.#.oXoXoXoXoXoXoXoXoXoXoXoXoXoXoXoX",
"oXoXoXoXoXoXoXoXoXoXoXoX> > > oXoXoXoXoXoXoXoXoX> 1 r g x v x j d h C Y j.x.c.l.e.4._ _ :.:.%.J oXoXoXoXoXoXoXoXoXoXoXoXoXoXoXoX",
"oXoXoXoXoXoXoXoXoXoXoXoXoXoXoXoXoXoXoXoXoXoXoXoXoXoXq a d g g 4 j x Y b.I.R.D.v.y.w. . . .' / J f 1 oXoXoXoXoXoXoXoXoXoXoXoXoXoX",
"oXoXoXoXoXoXoXoXoXoXoXoXoXoXoXoXoXoXoXoXoXoXoXoXoXoXoXq w a s j x P f.I.(.[._.F.Z.r.O...o.] ! B f 0 > oXoXoXoXoXoXoXoXoXoXoXoXoX",
"oXoXoXoXoXoXoXoXoXoXoXoXoXoXoXoXoXoXoXoXoXoXoXoXoXoXoX1 q w d b P g.m.T.]..X`.G.Z.0.} } o.{ ~ 9 f e 0 oXoXoXoXoXoXoXoXoXoXoXoXoX",
"oXoXoXoXoXoXoXoXoXoXoXoXoXoXoXoXoXoXoXoXoXoXoXoXoXoXoXw w h V Y f.m.I.T.'./.P.n.k.8.[ [ { ] ~ R m k y t oXoXoXoXoXoXoXoXoXoXoXoX",
"oXoXoXoXoXoXoXoXoXoXoXoXoXoXoXoXoXoXoXoXoXoXoXoXoXoXoX4 j V Y b.B.T.T.Y.L.K.d.s.Z T T ! / ' / / E T 6 k t 0 oXoXoXoXoXoXoXoXoXoX",
"oXoXoXoXoXoXoXoXoXoXoXoXoXoXoXoXoXoXoXoXoXoXoXoXoXoXoXA H P f.I.(.].'.L.d.U I i u y l M %.-.:.| ` ~ R 6 y 0 > oXoXoXoXoXoXoXoXoX",
"oXoXoXoXoXoXoXoXoXoXoXoXoXoXoXoXoXoXoXoXoXoXoXoXoXoXoXS L <.x.R.[..X'.K.U p 2 1 q w d v K &.4. .{ ] ~ 8 y 0 , oXoXoXoXoXoXoXoXoX",
"oXoXoXoXoXoXoXoXoXoXoXoXoXoXoXoXoXoXoXoXoXoXoXoXoXoXoXW &.7.c.D.Q.).P.d.I 2 > : q a g v #.;.|  .X.] ! m t 0 , oXoXoXoXoXoXoXoXoX",
"oXoXoXoXoXoXoXoXoXoXoXoXoXoXoXoXoXoXoXoXoXoXoXoXoXoXoX$.$.5.l.v.F.G.n.s.i 1 : 3 a j M K ) 9. . .w.( @.c t 0 , oXoXoXoXoXoXoXoXoX",
"oXoXoXoXoXoXoXoXoXoXoXoXoXoXoXoXoXoXoXoXoXoXoXoXoXoXoX$.=.=.6.y.C.Z.k.Z u q q s x G #./ ]  .X.w.4.;.J j r 1 , oXoXoXoXoXoXoXoXoX",
"oXoXoXoXoXoXoXoXoXoXoXoXoXoXoXoXoXoXoXoXoXoXoXoXoXoXoX$.=.*.4. .r.r.8.N f r r j G #.:. .X.o.X. .4.#.H j r < , oXoXoXoXoXoXoXoXoX",
"oXoXoXoXoXoXoXoXoXoXoXoXoXoXoXoXoXoXoXoXoXoXoXoXoXoXoX$.=.&._  ...} ~ T l f j v #.) q.o.i.i.o. .4.$.F j r 1 , oXoXoXoXoXoXoXoXoX",
"oXoXoXoXoXoXoXoXoXoXoXoXoXoXoXoXoXoXoXoXoXoXoXoXoXoXoX$.$.&._  .....[ ! M x G +./ w.o.o.u.u.X. .4.#.H j r q , oXoXoXoXoXoXoXoXoX",
"oXoXoXoXoXoXoXoXoXoXoXoXoXoXoXoXoXoXoXoXoXoXoXoXoXoXoX$.=.&._  ..... ./ W J #.-.| X.o.u.u.u.X. .3.#.F j r 1 , oXoXoXoXoXoXoXoXoX",
"oXoXoXoXoXoXoXoXoXoXoXoXoXoXoXoXoXoXoXoXoXoXoXoXoXoXoXoX$.$.:.9.{ { ] ( -.%.:.q.X.o.i...i.o.X.| ;.L F d q , > oXoXoXoXoXoXoXoXoX",
"oXoXoXoXoXoXoXoXoXoXoXoXoXoXoXoXoXoXoXoXoXoXoXoXoXoXoXoX$.&.%.! ~ ~ ` / :.9.|  .X.X.o.o.o. .' -.+.G g r < ; = oXoXoXoXoXoXoXoXoX",
"oXoXoXoXoXoXoXoXoXoXoXoXoXoXoXoXoXoXoXoXoXoXoXoXoXoXoXoXoXoX@.J 9 N R ! '  . . .w. . . .w.| :.+.G l r , * % $ oXoXoXoXoXoXoXoXoX",
"oXoXoXoXoXoXoXoXoXoXoXoXoXoXoXoXoXoXoXoXoXoXoXoXoXoXoXoXoXoXoXf y k 6 R `  .X. .| 3.3.3.3.;.+.G g r < & $ @ O oXoXoXoXoXoXoXoXoX",
"oXoXoXoXoXoXoXoXoXoXoXoXoXoXoXoXoXoXoXoXoXoXoXoXoXoXoXoXoXoXoX1 0 e k T ~ ] ] 9.;.=.$.L #.K G l r < = $ @ X . oXoXoXoXoXoXoXoXoX",
"oXoXoXoXoXoXoXoXoXoXoXoXoXoXoXoXoXoXoXoXoXoXoXoXoXoXoXoXoXoXoXoX, 0 y 6 R ~ ! @.J G F H G F g r < = % # o .   oXoXoXoXoXoXoXoXoX",
"oXoXoXoXoXoXoXoXoXoXoXoXoXoXoXoXoXoXoXoXoXoXoXoXoXoXoXoXoXoXoXoXoX, t k 6 8 m c z j g j g d e 0 & % @ + X oXoXoXoXoXoXoXoXoXoXoX",
"oXoXoXoXoXoXoXoXoXoXoXoXoXoXoXoXoXoXoXoXoXoXoXoXoXoXoXoXoXoXoXoXoXoXoXt t y t t r r r a r q < * $ + o X oXoXoXoXoXoXoXoXoXoXoXoX",
"oXoXoXoXoXoXoXoXoXoXoXoXoXoXoXoXoXoXoXoXoXoXoXoXoXoXoXoXoXoXoXoXoXoXoX0 0 0 0 0 1 1 1 2 1 < ; % $ o . oXoXoXoXoXoXoXoXoXoXoXoXoX",
"oXoXoXoXoXoXoXoXoXoXoXoXoXoXoXoXoXoXoXoXoXoXoXoXoXoXoXoXoXoXoXoXoXoXoXoX, > > > , , , , , - = $ o .   oXoXoXoXoXoXoXoXoXoXoXoXoX",
"oXoXoXoXoXoXoXoXoXoXoXoXoXoXoXoXoXoXoXoXoXoXoXoXoXoXoXoXoXoXoXoXoXoXoXoXoXoXoX> oXoXoXoXoXoXoX$ oXoXoXoXoXoXoXoXoXoXoXoXoXoXoXoX",
"oXoXoXoXoXoXoXoXoXoXoXoXoXoXoXoXoXoXoXoXoXoXoXoXoXoXoXoXoXoXoXoXoXoXoXoXoXoXoXoXoXoXoXoXoXoXoXoXoXoXoXoXoXoXoXoXoXoXoXoXoXoXoXoX",
"oXoXoXoXoXoXoXoXoXoXoXoXoXoXoXoXoXoXoXoXoXoXoXoXoXoXoXoXoXoXoXoXoXoXoXoXoXoXoXoXoXoXoXoXoXoXoXoXoXoXoXoXoXoXoXoXoXoXoXoXoXoXoXoX",
"oXoXoXoXoXoXoXoXoXoXoXoXoXoXoXoXoXoXoXoXoXoXoXoXoXoXoXoXoXoXoXoXoXoXoXoXoXoXoXoXoXoXoXoXoXoXoXoXoXoXoXoXoXoXoXoXoXoXoXoXoXoXoXoX",
"oXoXoXoXoXoXoXoXoXoXoXoXoXoXoXoXoXoXoXoXoXoXoXoXoXoXoXoXoXoXoXoXoXoXoXoXoXoXoXoXoXoXoXoXoXoXoXoXoXoXoXoXoXoXoXoXoXoXoXoXoXoXoXoX",
"oXoXoXoXoXoXoXoXoXoXoXoXoXoXoXoXoXoXoXoXoXoXoXoXoXoXoXoXoXoXoXoXoXoXoXoXoXoXoXoXoXoXoXoXoXoXoXoXoXoXoXoXoXoXoXoXoXoXoXoXoXoXoXoX",
"oXoXoXoXoXoXoXoXoXoXoXoXoXoXoXoXoXoXoXoXoXoXoXoXoXoXoXoXoXoXoXoXoXoXoXoXoXoXoXoXoXoXoXoXoXoXoXoXoXoXoXoXoXoXoXoXoXoXoXoXoXoXoXoX",
"oXoXoXoXoXoXoXoXoXoXoXoXoXoXoXoXoXoXoXoXoXoXoXoXoXoXoXoXoXoXoXoXoXoXoXoXoXoXoXoXoXoXoXoXoXoXoXoXoXoXoXoXoXoXoXoXoXoXoXoXoXoXoXoX",
"oXoXoXoXoXoXoXoXoXoXoXoXoXoXoXoXoXoXoXoXoXoXoXoXoXoXoXoXoXoXoXoXoXoXoXoXoXoXoXoXoXoXoXoXoXoXoXoXoXoXoXoXoXoXoXoXoXoXoXoXoXoXoXoX"
};
