/* XPM */
static char *_aa8877ca7e94f8cd711672f1816b60djZeNp5wesCgX1Zr4[] = {
/* columns rows colors chars-per-pixel */
"64 64 175 2 ",
"   c None",
".  c #0F0D24",
"X  c #110E25",
"o  c #131127",
"O  c #161329",
"+  c #19172D",
"@  c #1B192E",
"#  c #1D1C33",
"$  c #1E1F39",
"%  c #211F35",
"&  c #1F213A",
"*  c #212035",
"=  c #22233C",
"-  c #28273C",
";  c #2B293F",
":  c #232641",
">  c #252945",
",  c #2D2C42",
"<  c #262B48",
"1  c #292E4B",
"2  c #2F3047",
"3  c #2B314E",
"4  c #313146",
"5  c #34354A",
"6  c #39374B",
"7  c #36384F",
"8  c #3B3A4E",
"9  c #2E3452",
"0  c #313753",
"q  c #333956",
"w  c #3E3E52",
"e  c #363D5A",
"r  c #3A3F5A",
"t  c #403F52",
"y  c #3E4057",
"u  c #3C415C",
"i  c #3D4461",
"p  c #434255",
"a  c #43455C",
"s  c #48475A",
"d  c #47485E",
"f  c #4B4B5D",
"g  c #404765",
"h  c #444A64",
"j  c #4C4D62",
"k  c #454C69",
"l  c #484F6B",
"z  c #504F61",
"x  c #4E5066",
"c  c #4A516D",
"v  c #545466",
"b  c #54566A",
"n  c #5C5C6D",
"m  c #54586E",
"M  c #4D5572",
"N  c #505670",
"B  c #535974",
"V  c #595E75",
"C  c #555D7A",
"Z  c #57607D",
"A  c #59627D",
"S  c #5E6074",
"D  c #626374",
"F  c #61667D",
"G  c #6D6E7D",
"H  c #6F707F",
"J  c #70707F",
"K  c #5C6581",
"L  c #616781",
"P  c #636B85",
"I  c #696E84",
"U  c #656E8A",
"Y  c #6E7183",
"T  c #66708D",
"R  c #6B738C",
"E  c #747584",
"W  c #73788E",
"Q  c #7A7B8A",
"!  c #73778A",
"~  c #6C7691",
"^  c #6F7994",
"/  c #727B95",
"(  c #787F95",
")  c #737E99",
"_  c #7F818F",
"`  c #7C8092",
"'  c #76809C",
"]  c #7A839D",
"[  c #7C86A1",
"{  c #7E89A4",
"}  c #80828F",
"|  c #838493",
" . c #868896",
".. c #888A97",
"X. c #81879B",
"o. c #8A8C9A",
"O. c #8E909D",
"+. c #818CA5",
"@. c #838EA9",
"#. c #8C92A5",
"$. c #8692AC",
"%. c #8994AD",
"&. c #9194A0",
"*. c #9699A6",
"=. c #999BA7",
"-. c #929AAF",
";. c #999CA9",
":. c #9097AA",
">. c #8B96B1",
",. c #8D99B3",
"<. c #919DB6",
"1. c #939FB9",
"2. c #9EA0AC",
"3. c #9DA3B3",
"4. c #96A2BB",
"5. c #99A5BE",
"6. c #9DA8BF",
"7. c #A1A3AF",
"8. c #A3A6B1",
"9. c #A0A7B8",
"0. c #A1A8B8",
"q. c #ABAEBA",
"w. c #ADB1BC",
"e. c #B1B4BE",
"r. c #9CA7C0",
"t. c #9EA9C1",
"y. c #A2ADC3",
"u. c #A6B1C6",
"i. c #A9B2C6",
"p. c #A7B3C9",
"a. c #ABB5CA",
"s. c #AFB8CC",
"d. c #B3B7C2",
"f. c #B6BAC5",
"g. c #B9BCC6",
"h. c #B2BBCD",
"j. c #BBBEC8",
"k. c #B5BED0",
"l. c #BCC0CA",
"z. c #B7C0D2",
"x. c #BCC4D4",
"c. c #BFC8D8",
"v. c #C0C4CD",
"b. c #C1C7D3",
"n. c #C2C9D5",
"m. c #C9CED6",
"M. c #C4CCDA",
"N. c #C9CFDA",
"B. c #CCD2DC",
"V. c #D1D5DD",
"C. c #D3D8DF",
"Z. c #CED5E1",
"A. c #D1D7E1",
"S. c #D3D9E2",
"D. c #D5DAE2",
"F. c #D3DAE5",
"G. c #D5DBE5",
"H. c #D6DDE6",
"J. c #D5DBE4",
"K. c #D9DEE6",
"L. c #D9DEE6",
"P. c #D9DEE6",
"I. c #D8DFE8",
"U. c #DBE0E7",
"Y. c #DBE1E9",
"T. c #DDE3EA",
"R. c #DFE4EC",
"E. c #DDE4ED",
"W. c #DDE2EA",
"Q. c #E1E6ED",
"!. c #E1E6ED",
"~. c #E4E9EF",
"^. c #E6EBF1",
"/. c #E9EEF4",
"(. c #EBF0F6",
/* pixels */
"                                X . . . . . . . . . . . . . . . . . . . . . . . . . . . . . . .                                 ",
"                                o o o o o o o o o o o o o o o o o o o o o o o o o o o o o o o o                                 ",
"                                + + + + + + + + + + + + @ @ @ @ + + + + + + + + + + + + + + + +                                 ",
"                                * * * * * * * * * * * * * * * * * * * * * * * * * * * * * * * *                                 ",
"                                ; ; ; ; ; ; ; ; ; , ; ; ; 4 ; ; ; ; ; ; ; ; ; ; ; ; ; ; ; ; ; ;                                 ",
"                              5 6 8 p p p t p t y p 8 y p p 8 p p p p y p y p p y p p p p 8 p 6 6                               ",
"                            6 t s f z v v v v v v v v v v v v v z v v v v v v v v v v v v v f s p 8                             ",
"                          4 8 s v n D D G J J J J H H H J G J G G J G G G G G J J J J G G D D n f p 5                           ",
"                      O * 4 t v D G E }  . .o.o.o.o......... . . . . . . . ...o.o.o... .} Q J D v s 6 * +                       ",
"                    X + - 5 s n G _ o.*.2.7.8.7.8.8.7.7.7.7.7.7.7.7.7.7.7.7.7.7.8.8.7.7.=.O.} J n f 6 - # o                     ",
"                  X O # ; 8 f D Q O.2.q.e.l.l.l.l.j.j.f.g.g.j.f.g.g.e.g.l.g.l.l.l.l.l.e.q.2.O.Q D z 8 ; % O X                   ",
"                O + # - 5 p v G } =.q.l.m.m.V.B.V.m.m.m.m.m.m.m.m.m.m.m.m.m.N.B.V.B.m.m.l.q.*._ G v t 4 - @ + X                 ",
"                * * - 5 t z D E O.8.g.m.A.H.Y.H.D.J.C.C.S.A.S.G.C.L.C.U.C.U.U.U.U.C.F.B.b.e.2. .J n s 8 , = % #                 ",
"              4 4 6 8 p f n J } =.w.v.V.L.R.R.E.R.U.H.S.F.F.J.H.U.U.T.T.T.R.R.R.R.T.H.Z.n.f.3.O.! D x p 0 2 , - =               ",
"            6 8 p s z v D J } &.8.g.m.J.W.R.E.E.Y.H.S.Z.Z.F.F.H.U.R.R.!.!.!.!.R.R.Y.F.B.c.f.3.#.` I V x a w 0 5 2 ,             ",
"          5 t s z n D G E | &.7.e.v.m.J.R.R.E.Y.H.Z.Z.N.M.Z.Z.F.U.U.R.!.!.~.R.W.U.Z.B.M.l.a.6.:.X.W P V m j a p 0 5 ,           ",
"X o + % ; 6 s v D G E } O.=.7.e.l.m.C.L.U.W.U.F.Z.N.M.c.c.c.M.Z.F.U.R.Q.R.R.Y.H.F.N.M.x.h.u.r.,.#.` / I F V b h a 7 , = * + O X ",
". o + % , 8 s n G } O.=.7.e.f.v.m.V.D.U.U.L.F.B.M.x.z.k.k.k.c.M.B.F.L.Y.W.Y.H.S.Z.M.z.h.a.t.4.,.%.+.] / R I V x d 0 4 ; % # O o ",
". o + % ; 8 j D E o.2.q.g.v.m.V.C.D.U.D.H.F.B.M.x.h.s.a.a.a.k.x.M.Z.G.L.H.H.Z.M.c.k.s.i.t.6.1.1.-.%.#.[ ] R F m j r 5 = % + O o ",
". o + * ; 8 v G } *.q.j.m.V.C.L.U.U.U.U.H.Z.B.c.z.a.u.y.y.p.a.k.c.N.Z.S.H.B.B.M.z.s.u.t.6.4.r.1.<.<.%.@.] / U V j w , = % + + o ",
"X o + * 4 t v G  .2.e.m.C.U.!.!.!.!.R.U.G.Z.M.x.h.i.y.6.6.y.i.h.z.M.B.B.B.B.M.x.k.a.t.r.r.1.,.,.,.,.>.@.{ / U V h w , - # + O o ",
"X o + * ; p v G ..7.j.B.D.!.~./.^.~.!.U.J.V.M.x.h.u.6.5.5.t.y.a.h.x.M.B.N.M.c.x.s.u.t.5.1.1.>.,.>.%.$.{ ' ~ F B h w , - % + + o ",
". X + * ; t v H ..8.l.V.!.~./././.^.!.U.L.Z.M.x.s.u.6.5.4.5.t.p.s.z.x.c.n.x.z.h.a.y.6.4.1.>.1.{ @.{ { ) ^ U V c a 0 , = % @ + o ",
"X o + * 4 t v H o.8.l.V.!.~./.(.(.^.~.U.H.V.M.x.s.u.t.4.4.4.r.0.u.s.h.z.x.h.h.s.u.t.5.4.1.1.{ { { [ ) ~ U A N h w 5 , * @ @ O O ",
". X + % 4 t v J ..8.l.V.W.~.(.(.(.^.~.U.H.V.M.x.s.u.6.4.4.4.4.6.y.u.a.s.h.a.a.i.t.t.r.1.,.$.{ { ' ^ U K A c h y 0 , = * # @ + + ",
". X + * ; t v J ..8.j.V.L.~././.^.^.!.!.U.Z.N.x.h.u.t.4.1.4.4.4.6.y.u.u.u.u.u.y.r.r.r.,.1.{ { ) ~ K K B c g u 0 5 > - % # @ + + ",
"X o + * 4 8 v G ..7.g.m.L.Q.^.^.^.~.!.U.L.V.M.x.h.i.y.5.4.4.4.4.5.5.6.6.t.y.6.t.r.r.r.1.,.{ { ^ U K M l u r 9 3 : = = # @ @ + + ",
"X o + * ; t v G  .7.j.m.G.!.~.~.~.!.!.D.J.B.M.x.h.i.y.6.4.4.4.4.4.5.5.5.5.5.5.5.r.r.1.1.>.{ [ ~ K M l u e 3 < > = = % # # @ + + ",
"X X + * , t v G  .7.j.m.D.!.Q.~.!.!.U.H.Z.B.M.x.h.s.u.t.6.5.4.4.4.4.4.4.4.4.4.5.r.1.1.,.>.@.) T K M i e 9 < > & = # # # @ @ @ @ ",
"X o + * ; t v G ..2.j.m.D.U.Q.R.T.D.F.Z.B.N.c.x.z.s.i.u.y.6.6.5.5.4.4.1.4.4.4.4.r.1.1.1.>.{ ) T K l i q 1 > : & & # # # @ @ @ @ ",
"X o + * 4 t v G  .7.j.m.D.!.!.W.U.S.B.N.M.n.c.x.z.h.s.a.i.u.y.t.r.5.4.4.1.1.4.4.1.r.r.1.,.{ ) T K l i 9 1 > & $ # $ # # @ @ @ @ ",
". X + * ; t v J ..7.g.m.D.U.L.L.S.B.N.c.x.x.x.z.l.z.z.z.h.s.i.u.t.r.4.4.1.1.1.4.r.r.4.1.,.@.) U C l i 9 < > & $ # $ # @ % @ @ @ ",
"X o + * ; t v G o.7.j.m.J.H.F.F.Z.M.x.x.k.k.k.z.x.z.x.x.z.j.h.p.u.t.5.4.1.1.1.4.r.1.r.r.$.{ ' T K M i 9 1 < & & $ $ + $ O + # O ",
"X o + * ; p v G ..7.j.N.J.I.F.Z.M.x.h.a.s.s.h.j.x.n.M.M.M.x.x.h.a.y.6.5.1.4.4.4.r.1.1.,.1.{ ' T K i i 9 < < : & $ $ $ $ $ O # # ",
". X + * 4 p v G ..7.g.m.S.F.Z.Z.M.k.h.i.u.p.h.h.x.M.M.B.B.M.x.x.s.u.t.4.4.1.4.4.r.r.r.r.>.{ [ T K i i q 1 < : & $ O $ + # + + + ",
"X o + * ; t v G ..7.f.m.A.Z.Z.M.z.h.i.y.y.y.p.h.z.M.N.Z.Z.N.M.x.h.u.y.5.4.1.1.1.1.1.,.r.{ { ' T K M i q < < : & $ $ $ + + # + + ",
"X o + % 4 8 v G  .;.f.b.Z.Z.M.c.k.a.y.t.r.y.p.h.x.M.M.B.Z.M.M.z.h.p.t.r.1.1.<.<.,.,.,.{ { ' T K K i i 9 9 < : & $ $ # # # # + + ",
"X X + % ; w v G | =.w.b.M.M.c.c.k.p.t.r.r.t.y.h.k.n.M.B.Z.M.c.z.h.p.t.r.4.<.,.>.r.{ { { [ ~ U K K i i q 1 < : & $ $ # # + + + # ",
"X o + % ; 8 j G Q *.q.h.c.c.c.k.a.p.t.r.r.t.y.a.k.z.M.M.M.c.c.z.s.a.t.r.1.<.>.$.{ { [ ) ~ T K K i i i q 1 < < : & # # # # + # + ",
"X o + * ; 8 j F Q #.0.h.z.x.z.h.s.u.t.r.r.t.y.p.h.z.z.x.c.c.k.k.a.p.t.r.1.<.$.@.[ ' ~ T U K K M i i i 9 1 < : : & & $ $ + # + + ",
"o o + % ; 8 d D ! +.3.i.h.h.k.s.p.t.r.r.r.r.r.t.s.s.k.k.k.k.h.s.a.p.t.r.<.,.$.[ / ^ K K K K i i i e q 9 3 1 > : & # & @ @ @ @ @ ",
"X O + % - 5 a V Y X.-.9.i.p.a.p.p.t.r.r.1.r.t.t.t.p.p.s.s.p.a.p.p.t.r.4.<.$.{ ' ~ K K C i i i i e q 9 9 1 > : = = & # @ # @ @ @ ",
"o O + % = 5 s m I ( %.3.6.y.y.y.t.r.r.r.1.r.r.r.r.r.t.t.t.t.t.t.t.r.r.1.,.$.[ ^ K K M k i i e q q 9 9 3 1 < > : & & # # @ @ @ @ ",
"o O + % ; 5 a x A W X.%.1.4.5.5.r.1.1.,.1.1.1.1.1.1.r.r.r.4.r.4.4.4.1.,.$.{ ' ~ K C i i e 9 9 9 3 9 3 3 1 > > = = & # # @ @ @ @ ",
"o O + % = 5 y x V R ( +.%.>.,.,.,.,.>.>.$.,.>.>.>.>.>.,.,.,.,.,.,.,.,.$.{ [ ~ K Z c i q 9 3 < < < 1 1 1 1 > : : = # % @ % @ @ @ ",
"o O + # = 4 w j B L R / ] [ { +.{ { { { { { { { { { { { { { { { @.@.{ { [ ^ U K C i i q 9 < < < < < < < > > : = = = # # @ @ @ @ ",
"o O + % - 4 q a b V L I R R ^ / ) / ) ) ) ) ) ' ^ ) ) ^ ) ) ) ) ' ' ' / ~ T K C c i e 9 1 < < < : < : > : : = = = # % @ @ @ @ @ ",
"o O + % = 4 0 y h x B V A A K P K U U K T T T T T U T U T T T T T T T U K K C c i i q 9 1 < : : : : : : : = = = = # # % # @ @ @ ",
"          , 5 0 a a h l x c N B B C C C A Z Z C Z C C K K C K K K K C K C M c k i e 9 1 1 > > > : : & & = = & = # & #           ",
"            , 5 8 0 w w r a a h h h c c c c M M M c c k c c i M k M l c c k i i i q 9 9 1 < : : : : = & = # # # # #             ",
"              4 , , 2 5 5 5 0 7 e u u u i i i i i i i i i i i i i i i i i i r e q 9 9 1 1 < > : = = & $ # # # # #               ",
"                - - = - : , , 1 3 5 0 0 0 q e q e q q q q q q q q q q q q 9 9 9 9 9 9 3 < < > : = & = # # # # #                 ",
"                # # # # % % = : > > 1 1 1 3 3 9 3 3 1 3 3 3 3 3 9 1 3 1 1 3 3 3 1 1 1 1 1 > > : = $ # # # @ @ @                 ",
"                  + @ # # # $ % & : : > > < > > < < > < < < < < < > < < > < < < < < < < > > = = = $ # # # @ @                   ",
"                    O O + + # # $ $ & : : : : : : : : : : : : : : : : : : : : > : > > : : : = = & $ # # @ @                     ",
"                      O O O + # $ $ & & & & & & & : $ & & & & & & & & & & : & & : = : : : = = & % # # # @                       ",
"                          O # # # # # $ $ $ $ $ & & $ & $ $ $ = & $ $ $ $ $ $ $ = & = = = = = = $ % #                           ",
"                            O # # # # $ $ $ $ $ # # # $ # $ # # $ $ # $ $ $ $ $ % & # & # $ # = # #                             ",
"                              # # # # # # # # # # # # # # # # # # # # # # # $ # # % % # # # # # #                               ",
"                                # # # % # @ # # # # # # # # @ # # # # # # # # # @ # # # # # # #                                 ",
"                                @ @ # @ # @ # @ # @ # @ @ @ @ % # @ # @ + # @ @ @ @ @ % # @ # @                                 ",
"                                @ @ @ @ @ @ @ @ # @ @ @ @ @ @ @ @ @ @ @ @ @ # @ @ @ @ @ @ @ @ @                                 ",
"                                @ @ @ @ @ @ @ @ @ @ @ @ @ @ @ @ @ @ @ @ @ @ + @ @ @ @ @ @ @ @ @                                 ",
"                                + @ @ @ @ @ @ @ @ + @ @ @ @ @ @ @ @ @ + @ @ @ + @ @ @ @ @ @ @ #                                 "
};
