/* XPM */
static char *_091fe8be4e141e8f01b23216e926059eeaUGJT25SX8ikgg[] = {
/* columns rows colors chars-per-pixel */
"64 64 139 2 ",
"   c None",
".  c #261A15",
"X  c #341D12",
"o  c #3A1F14",
"O  c #2B221F",
"+  c #3D2016",
"@  c #342118",
"#  c #262423",
"$  c #2A2624",
"%  c #372C25",
"&  c #392D26",
"*  c #3C2F28",
"=  c #3E312A",
"-  c #2D3132",
";  c #333836",
":  c #3E3F3F",
">  c #421F16",
",  c #422017",
"<  c #44221A",
"1  c #4A241D",
"2  c #4D2621",
"3  c #4E2923",
"4  c #512723",
"5  c #522925",
"6  c #572C29",
"7  c #5D2D2D",
"8  c #44332D",
"9  c #4B332E",
"0  c #51322E",
"q  c #473630",
"w  c #4A3632",
"e  c #4C3934",
"r  c #473B3B",
"t  c #493C3D",
"y  c #543533",
"u  c #5E3131",
"i  c #523A37",
"p  c #583836",
"a  c #543738",
"s  c #543C39",
"d  c #5A3E3D",
"f  c #602F2F",
"g  c #61302F",
"h  c #623232",
"j  c #683536",
"k  c #6A3738",
"l  c #623D3D",
"z  c #613F40",
"x  c #3C4242",
"c  c #3E4B4A",
"v  c #3F5357",
"b  c #454646",
"n  c #4D4442",
"m  c #4F4844",
"M  c #404D4F",
"N  c #4D4B4D",
"B  c #524847",
"V  c #564A4A",
"C  c #594E4E",
"Z  c #524F52",
"A  c #465355",
"S  c #485356",
"D  c #4A5659",
"F  c #42595E",
"G  c #4D5B5C",
"H  c #555553",
"J  c #5C5151",
"K  c #50595E",
"L  c #5A5B5B",
"P  c #614244",
"I  c #6B4C4E",
"U  c #6E4F50",
"Y  c #6F5051",
"T  c #735354",
"R  c #775658",
"E  c #795759",
"W  c #7A585A",
"Q  c #52605F",
"!  c #445F65",
"~  c #4C5C61",
"^  c #515F60",
"/  c #4E6564",
"(  c #4A656B",
")  c #4B696E",
"_  c #536363",
"`  c #5A6664",
"'  c #566867",
"]  c #5B6866",
"[  c #556768",
"{  c #5F676B",
"}  c #546C6B",
"|  c #4E6B70",
" . c #516F73",
".. c #547375",
"X. c #587474",
"o. c #597977",
"O. c #557778",
"+. c #577979",
"@. c #5B7C7B",
"#. c #60676B",
"$. c #627C82",
"%. c #7D8288",
"&. c #8C8F94",
"*. c #8C9196",
"=. c #8E9298",
"-. c #909398",
";. c #919599",
":. c #909499",
">. c #91959A",
",. c #92959A",
"<. c #93969B",
"1. c #94979C",
"2. c #9A9C9F",
"3. c #9B9DA0",
"4. c #9C9DA0",
"5. c #9D9EA1",
"6. c #9E9FA3",
"7. c #8CA4AB",
"8. c #9FA0A3",
"9. c #96ADB1",
"0. c #9BB1B5",
"q. c #9CB4BB",
"w. c #9DB4BC",
"e. c #9DB5BC",
"r. c #9EB5BC",
"t. c #9EB6BD",
"y. c #A1B8BE",
"u. c #A1B8BF",
"i. c #A4BBC1",
"p. c #A6BCC2",
"a. c #A7BDC3",
"s. c #A8BEC4",
"d. c #ABC0C5",
"f. c #ACC1C6",
"g. c #ADC2C6",
"h. c #ADC2C7",
"j. c #AEC3C7",
"k. c #AFC4C8",
"l. c #B2C6CA",
/* pixels */
"                                                                                                                                ",
"                                                                                                                                ",
"                                                                                                                                ",
"                                                                                                                                ",
"                                                                                                                                ",
"                                                                                                                                ",
"                                                                                                                                ",
"                                                                                                                                ",
"                                                                                                                                ",
"                                                                                                                                ",
"                                                                                                                                ",
"                                                                                                                                ",
"                                                                                                                                ",
"                                                                                                                                ",
"                                                                                                                                ",
"                                                                                                                                ",
"                                                                                                                                ",
"                                                                                                                                ",
"            7 7 7 7 7 7 7 7 7 6 6 I &.q.q.&.I 6 7 7 7 7 7 7 7 7 7 6 7 7 7 7 7 6 6 U &.r.y.&.I 6 7 7 7 6 7 6 7 7 7 7             ",
"            7 7 7 7 7 7 7 7 7 6 7 U -.u.r.&.I 7 7 7 6 7 7 7 7 7 7 7 7 7 7 7 7 7 7 I &.r.u.-.U 6 6 7 7 7 7 7 7 7 7 7             ",
"            7 7 7 y f f 7 7 7 7 f T 6.s.u.&.I 6 6 7 7 7 u h h u 7 7 f u 7 7 u 7 7 U &.i.g.2.T f 7 7 f h h f 7 7 7 7             ",
"            6 7 f f f h 7 7 7 7 f R 6.s.p.-.I 7 7 7 7 7 h h h h f f u h f 7 h h f T -.p.g.2.E f 7 7 f h h u f f 7 7             ",
"            7 7 f h h h f f 7 7 f Y ,.p.s.2.U 7 7 h u h h h h h h u h h u h h f f R 4.s.s.,.Y f 7 7 f h f 7 f h h u             ",
"            7 7 h h h h h f y f f Y -.y.s.2.U 7 f h h h g h h h h h h h h h h f f R 4.h.u.-.T f 7 f f h y f f h h h             ",
"            h u h h h h h h h u f Y -.y.y.,.Y f f g h h 7 u h 7 f f f h f 7 7 7 f Y ,.p.s.6.R f f h h f 7 f u h h j             ",
"            h h h h h h h h h f f Y &.y.y.,.T f g j h g 7 u h h 7 7 h h y 7 7 7 f Y ,.p.g.2.E f h h h h y 7 f h h h             ",
"            7 f h f f y f u f 7 f Y &.y.s.6.R f g h f 7 7 7 7 h y f f f f f f f f R 6.s.p.,.Y f h h h h 7 7 7 f u h             ",
"            7 7 h f f 7 h u f 7 f T ,.u.g.4.T f f h 7 7 7 7 h h 7 7 h h f f f f f R 4.s.y.-.Y f f h h f f 7 f f h u             ",
"        b r 7 7 f h 7 7 f h h f f R 6.g.u.1.T f 7 7 g h h h h u 7 7 u h u f h h f T ,.u.i.=.T h 7 f u h f h f h h u r b         ",
"        : r y f h h f y f h h h f T 6.s.y.-.Y f f 7 h h u h h h u 7 h h u h h h f T ,.i.w.=.T h f f u h h f f h h p r :         ",
"        : r p j j j h f f f u h f T ,.y.y.&.T h h h h h 7 h h j h h h h f u j h j R 8.s.i.&.T j h h f 7 f y 7 f j p t x         ",
"        b n l k k j j h f f h h h T ,.u.y.1.E j h h h h f g j j h h h h f f j k k W 8.s.p.,.R j j j h f f f f h j l n b         ",
"        H C z k k k k k h j j j h R 6.l.l.6.W j h k j j j h j j k j j j h j k j j E <.s.j.8.W j j k j h j j h k k P C H         ",
"        L J l h h h h h h h h h h T &.0.0.&.U f h h z P P P P P P P P z P z j f g I %.7.9.*.Y h f h j h h h h h h l J L         ",
"        L C p 6 0 6 6 6 0 6 6 6 6 d { $.$.#.d 6 6 a Z ^ K K G K K K G K K Z a 6 6 d ` @.@.#.d 6 6 6 6 6 6 6 6 6 6 p C L         ",
"        L V 9 2 5 5 3 5 5 5 5 4 4 i G ( ( H a 4 5 y N ~ / ( ! v A F ( ( ~ N w 4 4 y K ) } D e 4 5 5 5 5 5 5 5 4 3 0 V Q         ",
"            3 2 4 5 3 1 3 5 5 5 4 i _ O.O._ d 6 6 7 u V ' / x - - x / ' B 9 3 4 6 d Q X.O.Q e 1 3 5 5 5 5 3 5 3 3 3             ",
"            2 2 3 3 3 3 3 5 5 3 4 s ` @.@.` d 6 6 6 6 d ] } c ; ; c } ] s 2 1 1 5 d #.@.@.` i 1 3 5 5 3 5 5 3 3 2 2             ",
"            4 3 3 3 3 3 5 5 2 1 2 s ` @.+._ a 4 2 2 4 d ] o.} / /  .o.] d 1 1 2 4 d ` @.@.` i 3 5 5 2 2 3 5 3 3 3 3             ",
"            5 4 1 1 4 4 5 4 1 1 2 s ` o.O._ a 4 2 1 2 y H ` ] ` ] ] ` H y 4 4 1 2 s Q @.@.` s 4 4 2 2 1 5 5 1 2 5 5             ",
"            4 3 1 2 5 6 4 1 1 1 4 i _ +.O._ a 5 1 1 1 3 y i s s d d i 9 6 3 3 2 1 w Q +.O._ i 4 4 3 1 2 5 6 2 2 6 6             ",
"            i s e e d a e w w e i B _ ..O.' C d e w w e e s s i s i 9 w e s s s e m _ O..._ B s s s e e a a w w a a             ",
"            ` _ G G ^ _ D D / _ _ ' ....X.X.' [ _ Q D D _ _ _ _ K D D G _ _ _ _ _ ' X.O.) [ _ _ _ _ _ ^ K D D D D S             ",
"            Q _ D D G / G D G _ Q _ } ..X.X.[ ^ Q / D D G _ _ Q D S S D G _ _ Q _ ' }  .) ( / Q _ _ _ ~ D D D A S A             ",
"            e e 8 8 e e w w 8 9 w n G | ..[ n e w 8 w w e e e e w 8 8 8 w e e e w m G | ../ n 8 w e e w 8 8 w w 8 8             ",
"            < < < < < < 1 < , > < 8 A ) ..^ w > > , < 1 1 < < 1 1 1 < < < < 1 < > 8 D | | G 8 > < 1 1 < < < 1 < < o             ",
"            , < < 1 < < < < o > , 8 A ) ..Q 8 o o < < + + + < 1 < < < 1 < < < , > 9 G | | A * o < 1 < < < 2 1 1 < >             ",
"            + < 1 1 < + 1 1 o o o 8 A )  .D = o o < < < X + < < < , < < < < + + > w G ..) A * o < < < + < < < 1 < o             ",
"            X + 1 < + + < < + + o 8 S ( ( A = o o < < + X + + < < + + + + < + o < q D ) ( A * + < < + + + + < 1 + @             ",
"            X + < < @ + < , + + o 8 S ( ( A & o o < < o + o + < + + + o + + o o < q A ( ( A * + < < + @ X + < < + @             ",
"            @ + + + @ + + + X X o = A ( ( A = X X o o o X o o o + o o X o o o X o * A ( ( A = X o + + X @ o + + + X             ",
"            @ @ @ @ X X X X X X X & c ! ! c % X X X X X X X X X X X X X X X X X X % c ! ! c & X X X X X X X X X @ X             ",
"            $ $ $ O .                                                                                     . $ $ O $             ",
"            # $ $ #                                                                                         # $ $ #             ",
"            # $ $ #                                                                                         # $ $ #             ",
"            # # # #                                                                                         # # # #             ",
"                                                                                                                                ",
"                                                                                                                                ",
"                                                                                                                                ",
"                                                                                                                                ",
"                                                                                                                                ",
"                                                                                                                                ",
"                                                                                                                                ",
"                                                                                                                                "
};
