/* XPM */
static char *result[] = {
/* columns rows colors chars-per-pixel */
"64 64 70 1 ",
"  c #4F3018",
". c #55341B",
"X c #5A361C",
"o c #5D391D",
"O c #613B1F",
"+ c #653E21",
"@ c #683F21",
"# c #674023",
"$ c #6D4224",
"% c #6E4428",
"& c #724525",
"* c #774826",
"= c #7A4A27",
"- c #724729",
"; c #754A2C",
": c #7D4C2A",
"> c #7B4E31",
", c #7F5032",
"< c #814E2A",
"1 c #84512C",
"2 c #8B552D",
"3 c #855E2E",
"4 c #89582F",
"5 c #90572E",
"6 c #92592F",
"7 c #825232",
"8 c #8A5633",
"9 c #875830",
"0 c #8E5A35",
"q c #8F5B39",
"w c #955B31",
"e c #985C31",
"r c #945E3B",
"t c #96603D",
"y c #9B633E",
"u c #9C7138",
"i c #BF6C3B",
"p c #A1763C",
"a c #A77A3E",
"s c #C4783E",
"d c #9E6540",
"f c #9C6841",
"g c #A16741",
"h c #A56943",
"j c #A86B44",
"k c #A47046",
"l c #B07B4F",
"z c #C27141",
"x c #BD9345",
"c c #B08553",
"v c #C88542",
"b c #CB8E44",
"n c #C6804D",
"m c #C99D4A",
"M c #D19D4C",
"N c #CD8753",
"B c #CA8A54",
"V c #D1A84C",
"C c #D3A851",
"Z c #D29B62",
"A c #C2A36A",
"S c #DDA26A",
"D c #D9AA6A",
"F c #D6B469",
"G c #D4B670",
"H c #DDB173",
"J c #DCBD7D",
"K c #DDC382",
"L c #E6C885",
"P c None",
/* pixels */
"PPPPPPPPPPPPPPPPPPPPPPPPPPPPPPPPPPPPPPPPPPPPPPPPPPPPPPPPPPPPPPPP",
"PPPPPPPPPPPPPPPPPPPPPPPPPPPPPPPPPPPPPPPPPPPPPPPPPPPPPPPPPPPPPPPP",
"PPPPPPPPPPPPPPPPPPPPPPPPPPPPPPPPPPPPPPPPPPPPPPPPPPPPPPPPPPPPPPPP",
"PPPPPPPPPPPPPPPPPPPPPPPPPPPPPPPPPPPPPPPPPPPPPPPPPPPPPPPPPPPPPPPP",
"PPPPPPPPPPPPPPPPPPPPPPPPPPPPPPPPPPPPPPPPPPPPPPPPPPPPPPPPPPPPPPPP",
"PPPPPPPPPPPPPPPPPPPPPPPPPPPPPPPPPPPPPPPPPPPPPPPPPPPPPPPPPPPPPPPP",
"PPPPPPPPPPPPPPPPPPPPPPPPPPPPPPPPPPPPPPPPPPPPPPPPPPPPPPPPPPPPPPPP",
"PPPPPPPPPPPPPPPPPPPPPPPPPPPPPPPPPPPPPPPPPPPPPPPPPPPPPPPPPPPPPPPP",
"PPPPPPPPPPPPPPPPPPPPPPPPPPPPPPPPPPPPPPPPPPPPPPPPPPPPPPPPPPPPPPPP",
"PPPPPPPPPPPPPPPPPPPPPPPPPPPPPPPPPPPPPPPPPPPPPPPPPPPPPPPPPPPPPPPP",
"PPPPPPPPPPPPPPPPPPPPPPPPPPPPPPPPPPPPPPPPPPPPPPPPPPPPPPPPPPPPPPPP",
"PPPPPPPPPPPPPPPPPPPPPPPPPPPPPPPPPPPPPPPPPPPPPPPPPPPPPPPPPPPPPPPP",
"PPPPPPPPPPPPPPPPeee651222PPPPPPPPPPPPPPPPPPPPPPPPPPPPPPPPPPPPPPP",
"PPPPPPPPPPPPPP225621**&&&&==PPPPPPPPPPPPPPPPPPPPPPPPPPPPPPPPPPPP",
"PPPPPPPPPPPPP=1252=&$$&&=<<<:<:7PPPPPPPPPPPPPPPPPPPPPPPPPPPPPPPP",
"PPPPPPPPPPP2556e5=$$$$&<212<==*8ryytr81==<::==;:7PPPPPPPPPPPPPPP",
"PPPPPPPPPPPee466=$$$=:121<<*&=ydttw41<<=:=*$&-=;:,7PPPPPPPPPPPPP",
"PPPPPPPPPPeee65=$$$1r2<1<::&=yjjjjw1<<*==&+$%%-=;::7PPPPPPPPPPPP",
"PPPPPPPPPeee62<$$&8r22<<<:$;yjjjjr1<<==<&OO###%&-=:>,PPPPPPPPPPP",
"PPPPPPPPPe6e6:&$*wgr22<<:&&7rdggt1<<=<<=OOOOO#$$%-;::PPPPPPPPPPP",
"PPPPPPPPeeee<&$$rjg2<<<<*$8gdtrr211==1=@OOOOO#$$%%&=;:PPPPPPPPPP",
"PPPPPPPPee66*&$7jjr2<:<=$<gjgjgw<<<==<*OOOOO*22=&#%&-;PPPPPPPPPP",
"PPPPPPPee66<*$=djh6<*1<&-rjjjgy21<<===@OOOO1wwew2&$&%&=PPPPPPPPP",
"PPPPPPPeee1<=$7jjy2*<1*$7dddtdr<<<<:=$OOOO:eeeew1:$#%%&PPPPPPPPP",
"PPPPPPPee215&$8ryr<:<<&*dggdgj0<<====$OOO$2211<>:w=@##&PPPPPPPPP",
"PPPPPPee6262$=dgyr*<<=$<gjjjjg8:==<==OOOO:609222w6<$++%PPPPPPPPP",
"PPPPPP665ee<#$rhg6=<<&&8rrddgd<*<<<<*OOO$66w8282712$O+@#PPPPPPPP",
"PPPPPP44ee6:%+%7r2=<:$*ghddtr8*:<===$OOO&822566e2w6&@OOOPPPPPPPP",
"PPPPPP6ee6w=-%%#78:<*$7hhhjy0<-;=<<=OOOO1e6eee677e2&@OOOPPPPPPPP",
"PPPPPPweee2*-$&&$:::*@7ghr7;:<-@<<==OOO@2eee6812621&#oOOPPPPPPPP",
"PPPPPeeee61&&%%%%-:=&$2rq>:<><-@=<=&OOO$ww81117211<$#+oOPPPPPPPP",
"PPPPPeee6=1:%&%&&&<<*$&=>::;::@@=*=$OOO$222ww21=&$++o+O+PPPPPPPP",
"PPPPP2552<55;&@-&&121<==;:::<=$O*=*OOOO&78<=&@++O+ooo+oOPPPPPPPP",
"PPPPP12211558;@&$@<121<:=>::;$$***=&OOOO%+@+O+ooOoO+o+o+PPPPPPPP",
"PPPPP<<211<=1<@@%$*2::<;=;=-%#*==*=OOOOOOOOoOOO++oOOoOoOPPPPPPPP",
"PPPPP2<<1<<1<1<&&-&<:<:;;=&#&==:==*OOOOOOOOOOOOOo+oo+XoXPPPPPPPP",
"PPPPP22<<<<<<<:*&;,9<:==*$-*==:=*==OOOOOOOOOOOOO+XXoooooPPPPPPPP",
"PPPPP1<2<=<<<*::8AKGa:;&%*=*:==**==OOOOOOOO#OOOoo.o+XoooPPPPPPPP",
"PPPPP21<<=***<11ALHDCu&&*:&&*******OOOOOOOOO+OXX.o+o.oooPPPPPPPP",
"PPPPP2<<<<@@@qdjKZSBvx::********&**OOOOOOOOOXX.X+++o.+ooPPPPPPPP",
"PPPPP11:<<@@@yjlKBzzzm8=&**=-&*$$&&OoX.OOOOoXO%;;&#oXooXPPPPPPPP",
"PPPPP1<<<<@@@erdJZzsbCytw7<==&&$&&=@O.oOOOO&;>,,>&$oXooXPPPPPPPP",
"PPPPP<112<@=@0ggcFMmVuyjjgd1&&&**&&OoXoO$;1<>>>;:%@ooXo.PPPPPPPP",
"PPPPP111@<<@@rdq#3xmk+%9ydg1*&&&&&*OOXOO-7>:>;>>>-%+oXo.PPPPPPPP",
"PPPPP11:@1@@@qj8@@rrt-X:yyg7*&&&&&@OOOXO->>7,>>>;$$+ooooPPPPPPPP",
"PPPPP1<&=<=@@0gy6ejhpr8ryyy1&&&&*OOOOOXO-7>>>>>>>-#+o.XOPPPPPPPP",
"PPPPP1**1<<@@0rydddhgdgdyyy<&&&&@OO@OOOO%>>>>,,>;&$O..ooPPPPPPPP",
"PPPPP:*:11@@@rdyyydrddhhiyu<&*&$O@*@OOXX-7>>>>>;>&$o.X++PPPPPPPP",
"PPPPP<=<<<&O&wjhhgyttyyjjjj2&&&@@%@##oXo%>>>>>>>>&$X.OOOPPPPPPPP",
"PPPPP=<1<=&$&wddgghhgyrtyyf1&&@&-%%oXooo%>>>,>>;;%%XOOOoPPPPPPPP",
"PPPPP:=<<:&$%8rdyfyyyyytrtr:&O$&%-+#XXoo%>;>>>>>;&@OOO..PPPPPPPP",
"PPPPP<:<<<&$%8drtyygggjgdtt:$$$&-@##XoXo%>>>,>>;>&$OO. XPPPPPPPP",
"PPPPP<<:<<&$#8dyyrrtyygghgj<$$$$@&@ooooo%>>,,>;;-$$Oo .OPPPPPPPP",
"PPPPPPP<:=$$$wjjhhgdyyyyydy,&$$$-@@+o.o#%>,>>>;%;&$O..OOPPPPPPPP",
"PPPPPPPPPPPPPPPPjhhhhggggdy:&&O$&@@+o.oo%;>;;;;>>&$ooOOOPPPPPPPP",
"PPPPPPPPPPPPPPPPPPPjjjhyyyy,&$O$@@@@#.XX%;;>;>>7>&%XOOOOPPPPPPPP",
"PPPPPPPPPPPPPPPPPPPPPPjhggg1$&@O&@@@@+.o%,,,7,7,P%@o+OPPPPPPPPPP",
"PPPPPPPPPPPPPPPPPPPPPPPPPPj<$&$$@@@@@@o+=7,7PPPPPPPPPPPPPPPPPPPP",
"PPPPPPPPPPPPPPPPPPPPPPPPPPP&$$$@+@@@@++@-PPPPPPPPPPPPPPPPPPPPPPP",
"PPPPPPPPPPPPPPPPPPPPPPPPPPP*$$#++@@@++--PPPPPPPPPPPPPPPPPPPPPPPP",
"PPPPPPPPPPPPPPPPPPPPPPPPPPPPPP$++@@-O%;;PPPPPPPPPPPPPPPPPPPPPPPP",
"PPPPPPPPPPPPPPPPPPPPPPPPPPPPPPPP+@@*@>;PPPPPPPPPPPPPPPPPPPPPPPPP",
"PPPPPPPPPPPPPPPPPPPPPPPPPPPPPPPPPPP;PPPPPPPPPPPPPPPPPPPPPPPPPPPP",
"PPPPPPPPPPPPPPPPPPPPPPPPPPPPPPPPPPPPPPPPPPPPPPPPPPPPPPPPPPPPPPPP"
};
