/* XPM */
static char *_09bd35790d34f2ae4597b3032e3b93aaTKNIzNFk0bnwDBk[] = {
/* columns rows colors chars-per-pixel */
"64 64 187 2 ",
"   c None",
".  c #25140A",
"X  c #29170C",
"o  c #2C1A0A",
"O  c #27180E",
"+  c #331F0B",
"@  c #261913",
"#  c #2C1F18",
"$  c #2B1D15",
"%  c #341D12",
"&  c #3A1F14",
"*  c #36220A",
"=  c #3C250C",
"-  c #3E280A",
";  c #2C221E",
":  c #3C2116",
">  c #332118",
",  c #3E2118",
"<  c #38271A",
"1  c #262423",
"2  c #2A2624",
"3  c #392D26",
"4  c #3C2F28",
"5  c #372C25",
"6  c #3E312A",
"7  c #3A382D",
"8  c #393432",
"9  c #383938",
"0  c #421F16",
"q  c #442C0C",
"w  c #492F0F",
"e  c #47300B",
"r  c #4B330B",
"t  c #50370C",
"y  c #533A0B",
"u  c #583E0C",
"i  c #412216",
"p  c #452A13",
"a  c #492E13",
"s  c #44231A",
"d  c #4A251D",
"f  c #4B2A1C",
"g  c #512E1D",
"h  c #4E3212",
"j  c #533613",
"k  c #573A13",
"l  c #5C3D14",
"z  c #55321C",
"x  c #5E3A1B",
"c  c #5A361B",
"v  c #623D1B",
"b  c #653F1A",
"n  c #4D2621",
"m  c #4E2823",
"M  c #512723",
"N  c #512924",
"B  c #592E23",
"V  c #572929",
"C  c #5C2E2C",
"Z  c #44332D",
"A  c #4C332D",
"S  c #443223",
"D  c #5B3223",
"F  c #5D302E",
"G  c #57342A",
"H  c #473630",
"J  c #4A3632",
"K  c #4C3934",
"L  c #513A36",
"P  c #543C39",
"I  c #5A3E3D",
"U  c #533734",
"Y  c #613822",
"T  c #62342D",
"R  c #683728",
"E  c #633233",
"W  c #643D32",
"Q  c #5C410C",
"!  c #5F4014",
"~  c #62460B",
"^  c #674A0B",
"/  c #6C4E0D",
"(  c #6E500B",
")  c #74540C",
"_  c #7A590C",
"`  c #79570F",
"'  c #644313",
"]  c #694714",
"[  c #6D4B13",
"{  c #674318",
"}  c #684318",
"|  c #714F12",
" . c #745112",
".. c #795611",
"X. c #795512",
"o. c #7D5A13",
"O. c #7F661F",
"+. c #454B3F",
"@. c #5C413D",
"#. c #5C4436",
"$. c #6C4928",
"%. c #794A22",
"&. c #76532E",
"*. c #63453C",
"=. c #74633E",
"-. c #3D4A4A",
";. c #404041",
":. c #4C4642",
">. c #404D4F",
",. c #4A4747",
"<. c #5E4B45",
"1. c #544C49",
"2. c #564A4A",
"3. c #465355",
"4. c #4A5659",
"5. c #4D5B5D",
"6. c #485356",
"7. c #555654",
"8. c #5A5C5C",
"9. c #684746",
"0. c #715254",
"q. c #645045",
"w. c #50605F",
"e. c #6C6A47",
"r. c #6D704C",
"t. c #76714B",
"y. c #626A5E",
"u. c #737B56",
"i. c #777A56",
"p. c #776541",
"a. c #445F65",
"s. c #515F60",
"d. c #4A656B",
"f. c #4C696E",
"g. c #4E6363",
"h. c #536363",
"j. c #596664",
"k. c #5B6964",
"l. c #526C6C",
"z. c #576868",
"x. c #4E6B70",
"c. c #516F73",
"v. c #537375",
"b. c #587474",
"n. c #557778",
"m. c #5C7C7A",
"M. c #587878",
"N. c #646C61",
"B. c #647F73",
"V. c #7D787A",
"C. c #815F0C",
"Z. c #875D17",
"A. c #86630C",
"S. c #8A650C",
"D. c #8E690D",
"F. c #926D0E",
"G. c #96700D",
"H. c #9D760D",
"J. c #9F780D",
"K. c #866110",
"L. c #946E18",
"P. c #9C7114",
"I. c #A37B0D",
"U. c #A87F0E",
"Y. c #856F24",
"T. c #937524",
"R. c #AA810E",
"E. c #B48A0E",
"W. c #BD900F",
"Q. c #AD8014",
"!. c #BF9610",
"~. c #B79019",
"^. c #B78F18",
"/. c #95863B",
"(. c #BA9F22",
"). c #BBA426",
"_. c #C19611",
"`. c #C49B11",
"'. c #C7A314",
"]. c #C9A313",
"[. c #CCAD16",
"{. c #CCAF18",
"}. c #958F44",
"|. c #959045",
" X c #899397",
".X c #8F959A",
"XX c #9FB9C0",
/* pixels */
"                                                                                                                                ",
"                                                                                                                                ",
"                                                                                                                                ",
"                                                                                                                                ",
"                                                                                                                                ",
"                                                                                                                                ",
"                                                                                                                                ",
"                                                                                                                                ",
"                                                                                                                                ",
"                                                                                                                                ",
"                                                                                                                                ",
"                                                                                                                                ",
"                                                                                                                                ",
"                                                                                                                                ",
"            E E E E E E E E E E E 0..XXXXX.X0.T E E E E E E E E E E E E E E E E E 0..XXXXX.X0.E E E E E E E E E E E             ",
"            F F F F F F F F C C C 9.V. X XV.9.C C E T T T T T E T T T T T T F F F 9.V. X XV.9.C F F F F F F F F C F             ",
"            N N m N m m N m m m m G @.<.<.I V m B D D Y Y Y Y Y Y Y Y Y v D B B D F @.9.<.@.A m N m m m m m N m m m             ",
"            d n d s d d d d d d s s s s s n f m g z x { x v v v v v v v x x c z z a f 0 s s d d n d d s , n n d d n             ",
"            n s , , s d : , s d : , s n d f z c k k l ' ' ' { { ' ' { { ' { v x h q p p p p f n n d , : : , d n n n             ",
"            s , : > s i : > i d , , s s f g x x l ! ' ' ' ] [ [ } ' [ [ ' ' ' v j e w w p f s f s s , % & & i s s s             ",
"            , : : > & : % : : : s s , p a j c l { } |  .| | |  . .|  .| | ] ' ' v k a q p p a s < , s , : > & & , ,             ",
"            > > % & & & : % % : s s : < h j k ! } | X.X.o.o.o.X.` ` X.` o. .[ ' { l j q p p p p : , s s : & & % % %             ",
"            2 ; % & & % > & % : > : a h j l ! ' [ X.Z.K.K.K.K.K.K.K.A.K.K.C.` [ ' l k j q q p p p p : : % > & & : *             ",
"            ; ; $ % % % % + % % * p w j j k Q ! / X.C.D.D.L.F.D.D.F.D.D.S.A.` [ ^ l k t e - p q q : * % % % + % % %             ",
"            @ O X X X X X o . o = q p e r y u Q / ) C.D.P.H.H.H.P.J.H.G.D.A.) ^ Q u t r r r q q - * o X X X X X O X             ",
"            . . . . . . . . o + - q q e r r u Q / _ A.F.J.I.R.R.R.R.R.P.G.A._ / Q u t r r r e q - * o X . . . . . .             ",
"            . . . . . . . o * - e e e r r Q ~ ( _ A.G.H.J.U.E.!.!.E.U.J.H.G.A._ ( ~ u y y y r q q - * + o . . . . .             ",
"            O . . . . X . * q e r t r y u ~ ( _ S.F.J.I.U.E._.`.`._.E.U.U.J.F.A._ ( Q Q Q u y r q q - * o . . . . O             ",
"        ;.8 $ . . . . o * - q r y y y Q Q ( _ A.G.J.I.R.E.!.'.].[.].!.E.U.J.J.G.A._ / ^ ^ ~ u t r e q - * o o . . $ 8 ;.        ",
"        ;.8 $ . . . X + q q r y u Q Q Q ( _ A.F.J.I.I.E.!.'.[.{.{.].].!.E.I.I.J.G.A._ ) ) ( ~ u y r e q - * o X . # 8 ;.        ",
"        ;.8 ; . . o * q q r t u ~ ^ ^ ( _ A.G.H.I.I.E._.'.[.[.{.{.{.[.'.!.E.R.J.H.G.S._ A._ ( ~ u t e e q - * + X $ 9 ;.        ",
"        ,.9 > o X + q q r y u ~ ( ) ) _ A.G.J.U.R.E._.].[.{.{.[.{.{.{.[.].!.E.R.R.H.G.D.A.C._ ( ~ u y r q q - * o > 9 ,.        ",
"        7.:.< + - - e r t u ^ ( _ C.C.A.F.I.I.U.E.`.].[.[.{.{.{.{.[.{.[.[.]._.E.R.I.I.H.D.A.A._ ( Q Q y r e q - * < :.7.        ",
"        8.1.S = q p w h j l ' [ X.o.O.Y.T.T.L.L.R.^.).).).).).).).).).).).).~.Q.P.L.L.T.Y.O.o. .| ' k j h p q p - S 1.8.        ",
"        8.1.A f s f f f g z x v } $.p.u.i.t.&.Z.Z.T./.|./.|.|.|.}.}.}.|.|./.T.Z.%.&.t.u.u.e.$.{ { c j m f f f f s A 1.8.        ",
"        8.1.Z n m m m m m V B D D @.y.B.B.N.*.E %.&.=.i.u.u.r.e.e.r.u.i.t.=.&.R R *.N.B.B.y.#.B D D m m m m m m m A 1.8.        ",
"            m d m m n n m N V V B P k.m.m.N.I C E T W q.N.k.,.7 7 +.k.N.q.G D B C @.j.m.B.j.U g N N N N m N m m f m             ",
"            n m m m n m m N N m m I j.m.B.j.I V V V V I k.l.-.9 9 -.l.j.I g d n V I k.B.m.h.L d m N m N N N m n m m             ",
"            N m n m m m N N n n N P j.M.M.s.P M M M M I z.M.l.g.g.f.M.k.P n d d M P j.m.m.j.P M N N n n N N m n m m             ",
"            N m d d N N N n d d n P j.M.n.s.P M M 0 d U 7.k.k.j.k.k.j.7.U M M d n L j.m.M.z.P M N m n d N M n n N N             ",
"            N N n n M V n n d d n P h.n.n.h.I M n d d m U L I P @.I L A N N m n n J h.M.n.h.P M M n n n V V n m V V             ",
"            P L K K P I J J J K L 2.z.v.v.z.2.I K J J J L L L L P L J J L P P P J ,.h.M.v.s.2.L P P K L P P J K L L             ",
"            h.h.5.4.s.s.4.5.s.h.h.z.f.v.v.b.z.z.h.s.4.5.s.h.h.s.5.4.4.4.s.h.h.h.s.z.b.v.l.d.h.h.h.h.s.s.5.4.4.4.4.6.            ",
"            j.h.5.4.s.s.4.4.s.s.w.z.l.v.b.b.z.h.g.s.4.4.s.h.h.5.4.6.6.4.s.s.h.s.g.z.l.b.f.d.h.s.h.s.s.s.4.6.6.6.4.3.            ",
"            K K J Z J K J J J A J :.5.f.v.z.:.K J J J J K K K K K J J H J K K K J :.5.c.c.s.+.Z J J L J H Z H J H Z             ",
"            s s 0 s s d d s i 0 s Z 6.f.v.5.J i 0 0 s s s i n s d s 0 0 s s d d 0 Z 4.f.v.5.Z 0 s d s s s 0 d 0 0 &             ",
"            i s s s s s s s & & 0 Z 3.f.v.5.Z & & s 0 s & 0 s d 0 s s s s 0 s s 0 Z 5.v.x.3.4 & s s s s s n d d s &             ",
"            & i n s i i d d & & 0 Z 3.f.c.5.4 & & s s , & & s d s s s d 0 s 0 & s J 5.c.d.3.4 & s n s 0 s s d n s &             ",
"            & , s d , , s d : % & Z 6.d.f.3.4 & 0 i s , & & s s s s , & i i , & 0 H 4.f.d.3.4 & s n : % : , n d : %             ",
"            % , i i , & i s : & & Z 6.d.d.3.4 & & 0 i & & & : , , & & & & , & & i H 6.d.d.3.4 & s , , % % : , s : %             ",
"            % & : & & & & : & % % 6 6.d.d.6.4 % & & & & % & & & & % & & & & & % & Z 3.d.d.3.6 % & : & % % & : & > %             ",
"            # > > & # % % % % % % 4 -.a.a.-.5 % % % % % % % % % % % % % % % % % % 5 -.a.d.-.3 % % % % % % & # & > %             ",
"            2 2 2 2 @                                                                                     @ 2 2 2 2             ",
"            1 2 2 1                                                                                         1 2 2 1             ",
"            2 2 2 1                                                                                         1 2 2 1             ",
"            1 1 1 1                                                                                         1 1 1 1             ",
"                                                                                                                                ",
"                                                                                                                                ",
"                                                                                                                                ",
"                                                                                                                                ",
"                                                                                                                                ",
"                                                                                                                                ",
"                                                                                                                                ",
"                                                                                                                                "
};
