/* XPM */
static char *result[] = {
/* columns rows colors chars-per-pixel */
"64 64 220 2 ",
"   c #3B2A1D",
".  c #3E2E21",
"X  c #462A16",
"o  c #4A2E1A",
"O  c #462D1A",
"+  c #4D311D",
"@  c #54331B",
"#  c #5A371C",
"$  c #5E391E",
"%  c #613B1F",
"&  c #433225",
"*  c #4E3421",
"=  c #453529",
"-  c #4A3A2D",
";  c #48372B",
":  c #523723",
">  c #533925",
",  c #5C3A23",
"<  c #553C2A",
"1  c #583E2C",
"2  c #583721",
"3  c #4C3D31",
"4  c #493729",
"5  c #653E21",
"6  c #693F22",
"7  c #613F29",
"8  c #78491F",
"9  c #5A412D",
"0  c #4F4034",
"q  c #524235",
"w  c #5C4432",
"e  c #544539",
"r  c #5A4A3E",
"t  c #57493E",
"y  c #664125",
"u  c #6D4223",
"i  c #65422A",
"p  c #6C442B",
"a  c #6D492E",
"s  c #724625",
"d  c #764826",
"f  c #7A4A27",
"g  c #724729",
"h  c #75492B",
"j  c #7C4C2B",
"k  c #634835",
"l  c #6D4B34",
"z  c #644C3B",
"x  c #6B4C38",
"c  c #734D34",
"v  c #7B4E31",
"b  c #744F38",
"n  c #6A533E",
"m  c #7D5134",
"M  c #75523B",
"N  c #7C553B",
"B  c #775339",
"V  c #5B4D42",
"C  c #5F5146",
"Z  c #6B5444",
"A  c #62554A",
"S  c #685649",
"D  c #7C5B44",
"F  c #725D4E",
"G  c #7C5E49",
"H  c #775641",
"J  c #6B5E53",
"K  c #675B50",
"L  c #7C634A",
"P  c #6C6056",
"I  c #756254",
"U  c #72655B",
"Y  c #796857",
"T  c #756A61",
"R  c #796E66",
"E  c #7E736B",
"W  c #995C1B",
"Q  c #AC5813",
"!  c #A66117",
"~  c #B86615",
"^  c #B07516",
"/  c #814E2A",
"(  c #834C20",
")  c #84512B",
"_  c #89532D",
"`  c #895526",
"'  c #835333",
"]  c #895635",
"[  c #8C5936",
"{  c #82563A",
"}  c #835A3D",
"|  c #8D5B39",
" . c #925B36",
".. c #925D3A",
"X. c #91552B",
"o. c #AE5D2D",
"O. c #996327",
"+. c #95613D",
"@. c #9B633E",
"#. c #966836",
"$. c #8F6420",
"%. c #A56925",
"&. c #B16F30",
"*. c #C4570C",
"=. c #CD6409",
"-. c #D26C08",
";. c #CA7C0E",
":. c #DC7D07",
">. c #D57C0A",
",. c #DC7C09",
"<. c #D77407",
"1. c #C8791B",
"2. c #CF7110",
"3. c #E37E08",
"4. c #C97525",
"5. c #C06E36",
"6. c #C47B3F",
"7. c #855E42",
"8. c #895E42",
"9. c #805F4A",
"0. c #8C6346",
"q. c #82644D",
"w. c #8C654B",
"e. c #8D694E",
"r. c #876246",
"t. c #9D6641",
"y. c #9C6945",
"u. c #9F6C4A",
"i. c #946746",
"p. c #977349",
"a. c #856955",
"s. c #886A55",
"d. c #936E53",
"f. c #95735B",
"g. c #9A765D",
"h. c #967254",
"j. c #817055",
"k. c #A16741",
"l. c #A56943",
"z. c #A56D48",
"x. c #A6794A",
"c. c #A37354",
"v. c #AA7955",
"b. c #B17D5B",
"n. c #B47D48",
"m. c #81766E",
"M. c #887668",
"N. c #9C7C64",
"B. c #987C66",
"V. c #887E76",
"C. c #857B74",
"Z. c #C47945",
"A. c #B9842B",
"S. c #AF8838",
"D. c #B88E31",
"F. c #DD8107",
"G. c #DC850B",
"H. c #DC8C0C",
"J. c #DA8809",
"K. c #DD960D",
"L. c #D78A17",
"P. c #D79516",
"I. c #C98912",
"U. c #E48307",
"Y. c #E78C07",
"T. c #E38308",
"R. c #E58C09",
"E. c #E88A09",
"W. c #E69106",
"Q. c #E99307",
"!. c #EA9B06",
"~. c #E49409",
"^. c #EA930A",
"/. c #E59A0A",
"(. c #EB9C0C",
"). c #E79E07",
"_. c #E79816",
"`. c #F09F14",
"'. c #ECA306",
"]. c #EBA40A",
"[. c #ECA708",
"{. c #EBA214",
"}. c #ECA519",
"|. c #F0AC1A",
" X c #CF9725",
".X c #C7853B",
"XX c #D3932E",
"oX c #E49824",
"OX c #D4A337",
"+X c #E6A62F",
"@X c #9D8455",
"#X c #B68948",
"$X c #BB9047",
"%X c #B58C55",
"&X c #99826C",
"*X c #8C837B",
"=X c #A5876C",
"-X c #A88A74",
";X c #AB957A",
":X c #B89378",
">X c #B78760",
",X c #CB9B49",
"<X c #C88D50",
"1X c #D2A64F",
"2X c #D69B63",
"3X c #C59F68",
"4X c #CDAC67",
"5X c #CCAA72",
"6X c #DBAE71",
"7X c #DAB779",
"8X c #CCB278",
"9X c #DBC17F",
"0X c #948B84",
"qX c #9A918A",
"wX c #9F9892",
"eX c #A49D99",
"rX c #BB9B84",
"tX c #B5A893",
"yX c #E4CA87",
"uX c None",
/* pixels */
"uXuXuXuXuXuXuXuXuXuXuXuXuXuXuXuXuXuXuXuXuXuXs 6 s 8 uXuXuXuXuXuXuXuXuXuXuXuXuXuXuXuXuXuXuXuXuXuXuXuXuXuXuXuXuXuXuXuXuXuXuXuXuXuX",
"uXuXuXuXuXuXuXuXuXuXuXuXuXuXuXuXuXuXuXf f f d d s s u u s 6 uXuXuXuXuXuXuXuXuXuXuXuXuXuXuXuXuXuXuXuXuXuXuXuXuXuXuXuXuXuXuXuXuXuX",
"uXuXuXuXuXuXuXuXuXuXuXuXuXuXuXuXf d f f f f s u u u s u d j / [ uXuXuXuXuXuXuXuXuXuXuXuXuXuXuXuXuXuXuXuXuXuXuXuXuXuXuXuXuXuXuXuX",
"uXuXuXuXuXuXuXuXuXuXuXuXuXuX/ j d d / f d u 6 s f ' ' ' ] | ....t.k.k.k.k.k.uXuXuXuXuXuXuXuXuXuXuXuXuXuXuXuXuXuXuXuXuXuXuXuXuXuX",
"uXuXuXuXuXuXuXuXuXuXuXuXuX) / d f / / s 6 6 f ] @.@.@.@.@.@.............@.@.@.@.@.@.....uXuXuXuXuXuXuXuXuXuXuXuXuXuXuXuXuXuXuXuX",
"uXuXuXuXuXuXuXuXuXuXuX_ _ / f / ) / / f f f  .@.k.k.k.k.k.k.@.@.@.k.@.@.....[ | ......' j s 6 6 % 5 6 % uXuXuXuXuXuXuXuXuXuXuXuX",
"uXuXuXuXuXuXuXuXuXuX_ _ ) / ) ) _ / / / / / / / _ ] X. ...@.k.@.....@.@.k.k.t...) s s % 5 5 7 % 5 u % % % $ % uXuXuXuXuXuXuXuXuX",
"uXuXuXuXuXuXuXuXuX/ / _ ` ` _ _ / f f f j j / / j j j j / / ) ]  ........... .j u u u u u u u 6 u % % % % % $ % % % uXuXuXuXuXuX",
"uXuXuXuXuXuXuXuXuXp p g h h j / d j / / / ) / f f f f f f d s s s f d f / / d d 6 6 s 6 6 s 6 6 6 5 5 5 % $ $ # $ % % uXuXuXuXuX",
"uXuXuXuXuXuXuXuXuXp p p p p p p p p g h f j s j / j j j f d f f f f f s d 6 s 6 d s 6 s u 6 6 u p 6 5 5 5 6 % % $ $ % % uXuXuXuX",
"uXuXuXuXuXuXuXuXuXuXp p 6 , : 2 5 7 7 p p p p p g g g h f f j j f f f f s d g g s s f s 6 5 g g s 6 g ' ] ] ] g % % % % % uXuXuX",
"uXuXuXuXuXuXuXuXuXuXp p p , X X X o X o @ : 2 , 5 7 p 6 p p p p g g g s d d d g d s j / 5 6 h g j ] ' ..] [ ..] u % % $ $ uXuXuX",
"uXuXuXuXuXuXuXuXuXuXuXp p 7 o X X X X X X X X X X X + : : , 5 7 7 7 7 p p g g g g j ' / 5 g v ' ..| ] ] ..' | ] s u % % % % uXuX",
"uXuXuXuXuXuXuXuXuXuXuXp p p 2 X X X X X X X o o + * : : : > > * & + * : , 1 7 6 p h ' ' v j / { [ ..| { | { ] ..h u 6 $ % % uXuX",
"uXuXuXuXuXuXuXuXuXuXuXuXp p 7 o X X X o * : > > < < > < 1 1 > & & . .         1 p a ' ' ' ' / ] ' | ..[ ] ] v ..j u u % % % uXuX",
"uXuXuXuXuXuXuXuXuXuXuXuXp a 6 @ o o * + : > > < < 1 1 1 1 w - = & & & . & .   + c l v ' ' / / ] ] ' ..| ] ] v | j u u % % % uXuX",
"uXuXuXuXuXuXuXuXuXuXuXuXp p a 7 o * : : > < 1 1 w w w k w e 3 3 - - ; & & &   & k c b ] [ ' ' ) | ' ] 8.| ] v 8./ 6 6 5 % % uXuX",
"uXuXuXuXuXuXuXuXuXuXuXuXuXp p p > * > > < 1 w k w k Z z r e q e q q 3 3 - = & . < b l ' | ] ' v [ ' v  . .' ] 6 6 6 6 5 % $ uXuX",
"uXuXuXuXuXuXuXuXuXuXuXuXuXp l c i > < 1 1 k r z Z Z Z A V V V V V t e q 3 3 - = & l b b | [ ] ' ] ] ' ' 8.] ] ' 6 6 6 7 % 5 uXuX",
"uXuXuXuXuXuXuXuXuXuXuXuXuXuXl c l 1 1 w w z z Z Z F S C A A A A C C V V t q 3 - = w M M } | ' ' ' ] ' ] ' ] ' ' ' 6 6 6 % 5 uXuX",
"uXuXuXuXuXuXuXuXuXuXuXuXuXuXl b M k 1 k z Z Z F J F K J J J J J J K A C V V e 3 - - M M B v y 7 6 ] ' ] | [ ] v u u u 5 % % uXuX",
"uXuXuXuXuXuXuXuXuXuXuXuXuXuXx M H Z k k Z Z F F P J U T T R R T U U P J A V r e 3 - k N M m ' v 6 c [ ' ] 8. .h u u u 5 5 uXuXuX",
"uXuXuXuXuXuXuXuXuXuXuXuXuXuXuXM 7.H n Z S F I I U R R E E E E E E R T U J K C r e 3 3 M M N 0.| | '  . .] ] / 6 u 6 5 % 5 uXuXuX",
"uXuXuXuXuXuXuXuXuXuXuXuXuXuXuXH H 9.G S F I I T E E E V.V.0X0XV.*XE E R T J A C t e 3 z H N | ..8.[ ] .. .' 6 6 p u 6 y uXuXuXuX",
"uXuXuXuXuXuXuXuXuXuXuXuXuXuXuXS 9.q.q.F U U U R m.*X*X0XqXqXqXqX0X0X*XE E U P A C t 0 0 n B { +.| [ ] | ' s u h h s p p uXuXuXuX",
"uXuXuXuXuXuXuXuXuXuXuXuXuXuXuXuX9.q.h.D.S.j.R m.*X0XqXwXeXeXeXwXwX0X*X*XE E U K C V e 0 n H B 8.0.[ [ ) u u g h h h s uXuXuXuXuX",
"uXuXuXuXuXuXuXuXuXuXuXuXuXuXuXuXI p.L.E.~. X%X X,X;X;X#X<X5X4XtXeXeXqX0X*XE U P C C e 0 w M M { +...| ' s s j j f h g uXuXuXuXuX",
"uXuXuXuXuXuXuXuXuX, uXuXuXuXuXuXuX.XT.T.T.}.~.U.W.+XL.Q.!.^.E._.8X5XOXOX&X*XE Y L C V 0 - n M B | +.| [ j j ' j j j uXuXuXuXuXuX",
"uXuXuXuXuXuXuXuXg u 7 , uXuXuXuXB._.Y.W.W.].R.Y.W.{.I.H.).!.^.3._.}.U.U. X&X@X XP.A.n e - w M b } +.j m ] ' ' ' j uXuXuXuXuXuXuX",
"uXuXuXuXuXuXuXuXg g u u , D h.>X>XoXQ.!.!.].J.H.^ O.j ! '.[.^.U._.(.Y.Y.W.,XL.:.U.`.^ e - = x M b v y y h ) ) j uXuXuXuXuXuXuXuX",
"uXuXuXuXuXuXuXg g p s g p | v.v.n.L.(.].[.I.O.` j j h 8 J.'.'.!.~.].!.!.^.+X~.R.W.(.P.%.$.9 9 M l m | | ] ' j j uXuXuXuXuXuXuXuX",
"uXuXuXuXuXuXuXh s s u u s ` 4.4.,.R./.].K.X.j j ) ) h u ;.!.].W.Q.[.[.(.(.}.!.!.!.[.J.W.).I.h l l v ..+.| | [ uXuXuXuXuXuXuXuXuX",
"uXuXuXuX@.z.@. .s s s u p 8 F.3.F.!.R.R.! j / h j j s y I.(.R.T.T.W.!.!.].!.~.'.[.Q.,.Y.!.[.1.v c c { .. .| uXuXuXuXuXuXuXuXuXuX",
"uXuX .@.&.@.@.@.j s p p u u ;.<.-.Q.E.>./ j j j j j u y ;.[.Q.W.R.^.(.].(.'.!.W.R.,.^.T.W.[.,.X.b p v ....uXuXuXuXuXuXuXuXuXuXuX",
"uXuX) _ ]  . .....' u u u p ! :.<./._.O.h j j j j g 8 ~ F.~.[.!.(.!.|.R.3.E.!.F.W.Q.!.!.{.(.=.o.y...' ' uXuXuXuXuXuXuXuXuXuXuXuX",
"uXuX/ ) ) ) / / ) ] d p u u ( 1.L.P.I./ f h d f s W >.Y.U.:.].[.!.~.{.Q.Y.U.(.{.].U.T.R.R.<.*.@.0.' p 5 uXuXuXuXuXuXuXuXuXuXuXuX",
"uXuX_ / ` / f j ) ) ) f g u g y.x.x.X.j g j d 8 Q F.H.).,.T.,.E.Q.J./.!.!.Q.`.{.G.-.~.G.=.Q ` g u 5 $ $ uXuXuXuXuXuXuXuXuXuXuXuX",
"uXuX_ ) / / j ` ) ) ) v g p v 0.p.8.j j g h +..X4.-.J.).=.3.<.=.F.T.J.[.'.!.W.F.=.~ &.O.B h p i 7 , , $ uXuXuXuXuXuXuXuXuXuXuXuX",
"uXuX_ ) / f / / ) f f v ' %X9X7X%X[ h h c s.b.rX3X<XOX,X5.-.:.-.=.:.F.Q.'.K.1.%.+.} B M x k i y 5 $ $ $ uXuXuXuXuXuXuXuXuXuXuXuX",
"uXuX_ ) j f d d g j _ ) v.yX7X6X4XS.j N d.N.B.N.-X-X:XrX3X<X6.XXG.>.K.P.&.x.e.a.r.L n x i i i i $ , $ $ uXuXuXuXuXuXuXuXuXuXuXuX",
"uXuX) / f / s u u v k.t.5X6X2X2X.X1Xy.e.d.d.f.N.N.=X=X=X-X-X:X:X>X#Xp.h.s.s.a.L D M k k l p p u , $ $ # uXuXuXuXuXuXuXuXuXuXuXuX",
"uXuX_ f / / 8 u u / l.l.7X2XZ.Z.5.,Xx.0.i.e.d.h.g.B.B.N.B.N.N.N.M.f.j.j.q.q.G D M x b N N v g y # % % $ uXuXuXuXuXuXuXuXuXuXuXuX",
"uXuX/ / / / s 6 u / k...3X7XZ.Z.6.1X%Xv.c.h.h.d.d.h.f.f.B.B.B.f.s.a.a.q.q.G D 7.7.0.8.| } v d 7 # $ # $ uXuXuXuXuXuXuXuXuXuXuXuX",
"uXuX/ _ / f f 6 u j @.k.x.4X1X,X1XD.l.v.b.b.b.c.p.e.j.d.d.d.d.s.q.L G G D w.w.w.0.8.7.N v v s 5 $ $ # # uXuXuXuXuXuXuXuXuXuXuXuX",
"uXuX) ) / f f u u j t.@.h h #X,X#Xh 7 { z.v.v.c.i.e.r.e.e.e.e.q.G D H M L w.0.7.} N N N { h g 5 $ # $ @ uXuXuXuXuXuXuXuXuXuXuXuX",
"uXuX/ / d f f u u j l...s % ] t.k.' 5 6 u.c.v.z.} } r.r.r.r.r.H H H M M B r.r.8.8.} { m v h p 6 $ $ $ $ uXuXuXuXuXuXuXuXuXuXuXuX",
"uXuX` s d / d 6 u / k.@. ._ k.l.z.l.] i.y.u.z.i.} } N } } N B B M b l l b | 7.{ m m m v ' h 6 6 % $ # $ uXuXuXuXuXuXuXuXuXuXuXuX",
"uXuXf s f / d s s / ..@.@...t.l.l.k.t.t.z.z.u.i.N ' N N N B c b c l a i c N N { { ' { v h g 6 6 # + $ % uXuXuXuXuXuXuXuXuXuXuXuX",
"uXuXf / / / f u u j k.@.@.@.@.@.@.k.k.l.l.l.z.@.m j m v h l v v 6 7 6 7 6 8.' 8.m v v h v d 6 5 @ @ % % uXuXuXuXuXuXuXuXuXuXuXuX",
"uXuXf / / / d u u / l.k.l.k.@.+...@.k.k.l.l.l. .d d g y u s p u 6 % , $ 6 6 ' 6 v v v v v d s % @ % % % uXuXuXuXuXuXuXuXuXuXuXuX",
"uXuX/ / / / d u u / k.t.t.k.l.l.k.k.@...t.k.l...d u u u u s d % 7 5 $ # 6 7.{ v v v v h v g u % $ % % % uXuXuXuXuXuXuXuXuXuXuXuX",
"uXuXf / / f d u u j ..t.@.@.@.@.@.@.k.......@.' s u u g u 8 s % $ 2 $ 2 6 v v 6 c v v v h g u 5 % % $ @ uXuXuXuXuXuXuXuXuXuXuXuX",
"uXuXf / / / d u s / @.@...@.@.l.l.k.k.k.@.@.+.] u u u 8 u u u % 2 $ # % 6 b 6 v ' v v h v g u 6 % # o @ uXuXuXuXuXuXuXuXuXuXuXuX",
"uXuX/ / f / d u u / @.@.@.........@.k.l.z.z.@. .u 8 u u s u u % # % # $ 6 6 7.' ' ' v a h g u 5 $ @ @ % uXuXuXuXuXuXuXuXuXuXuXuX",
"uXuXuXuX/ / d u u j l.l.z.l.l.@.t.@.t.t.@.@.@. .u s u u u u u % $ # $ % 6 ' v ' v h h 6 h g u 5 # @ $ % uXuXuXuXuXuXuXuXuXuXuXuX",
"uXuXuXuXuXuXuXuXuXuXuXuXl.l.l.l.k.k.t.l.&.@.@.] u s % u s u u % 5 # # $ 6 h c h h c c v v d u 5 # $ % % uXuXuXuXuXuXuXuXuXuXuXuX",
"uXuXuXuXuXuXuXuXuXuXuXuXuXuXuXuXl.l.l.l.@.@.@.| s s 8 % u u % 6 $ # @ 5 5 6 ' c h v v v ' d u $ $ 5 % % uXuXuXuXuXuXuXuXuXuXuXuX",
"uXuXuXuXuXuXuXuXuXuXuXuXuXuXuXuXuXuXuXl.l.k.l. .u s 6 % u u u 6 5 % # # 6 v ' ' ' m v ' m uXu 5 % % uXuXuXuXuXuXuXuXuXuXuXuXuXuX",
"uXuXuXuXuXuXuXuXuXuXuXuXuXuXuXuXuXuXuXuXuXuXl. .s u u % u % u 5 6 6 5 $ p ' ' v ' uXuXuXuXuXuXuXuXuXuXuXuXuXuXuXuXuXuXuXuXuXuXuX",
"uXuXuXuXuXuXuXuXuXuXuXuXuXuXuXuXuXuXuXuXuXuXuXuXu s u u % u 6 5 6 6 5 6 u uXuXuXuXuXuXuXuXuXuXuXuXuXuXuXuXuXuXuXuXuXuXuXuXuXuXuX",
"uXuXuXuXuXuXuXuXuXuXuXuXuXuXuXuXuXuXuXuXuXuXuXuXs u u 6 % 6 6 u u $ p g g uXuXuXuXuXuXuXuXuXuXuXuXuXuXuXuXuXuXuXuXuXuXuXuXuXuXuX",
"uXuXuXuXuXuXuXuXuXuXuXuXuXuXuXuXuXuXuXuXuXuXuXuXuXuXu 6 % u 5 u u 7 f h d uXuXuXuXuXuXuXuXuXuXuXuXuXuXuXuXuXuXuXuXuXuXuXuXuXuXuX",
"uXuXuXuXuXuXuXuXuXuXuXuXuXuXuXuXuXuXuXuXuXuXuXuXuXuXuXuXuX5 6 g u g j uXuXuXuXuXuXuXuXuXuXuXuXuXuXuXuXuXuXuXuXuXuXuXuXuXuXuXuXuX",
"uXuXuXuXuXuXuXuXuXuXuXuXuXuXuXuXuXuXuXuXuXuXuXuXuXuXuXuXuXuXuXu j uXuXuXuXuXuXuXuXuXuXuXuXuXuXuXuXuXuXuXuXuXuXuXuXuXuXuXuXuXuXuX"
};
