/* XPM */
static char *_03394d4a5c544a3b2fa8f5da6400c82HOZJzjd6nWsegL8L[] = {
/* columns rows colors chars-per-pixel */
"64 64 185 2 ",
"   c None",
".  c #190E16",
"X  c #180D15",
"o  c #1B121C",
"O  c #1C1623",
"+  c #28222F",
"@  c #2C2634",
"#  c #2D2836",
"$  c #26253B",
"%  c #7E533F",
"&  c #1D2343",
"*  c #202645",
"=  c #232846",
"-  c #2B2C43",
";  c #242A49",
":  c #282D4B",
">  c #2A304E",
",  c #3B3B4D",
"<  c #35344B",
"1  c #2E3554",
"2  c #343A56",
"3  c #353D5B",
"4  c #383F5D",
"5  c #353A55",
"6  c #413F51",
"7  c #39405F",
"8  c #37405E",
"9  c #3D4462",
"0  c #3F4867",
"q  c #454558",
"w  c #514F5F",
"e  c #66444B",
"r  c #694446",
"t  c #664A53",
"y  c #6B4E56",
"u  c #604651",
"i  c #7B5452",
"p  c #7C5A5A",
"a  c #414866",
"s  c #434B6A",
"d  c #494F69",
"f  c #4A4E66",
"g  c #4F546D",
"h  c #52576F",
"j  c #545569",
"k  c #4C5674",
"l  c #4E5877",
"z  c #545A73",
"x  c #5A5D74",
"c  c #545E7B",
"v  c #545A73",
"b  c #6C5A67",
"n  c #5B6077",
"m  c #56607F",
"M  c #5B617B",
"N  c #7F6164",
"B  c #63657E",
"V  c #656070",
"C  c #7A6F7F",
"Z  c #75717F",
"A  c #82351C",
"S  c #823A29",
"D  c #83431F",
"F  c #D55109",
"G  c #FC5D00",
"H  c #D57212",
"J  c #FF6101",
"K  c #D46337",
"L  c #FF783E",
"P  c #FB753C",
"I  c #805956",
"U  c #814F47",
"Y  c #8D7275",
"T  c #8A6F73",
"R  c #D78516",
"E  c #FE8C0C",
"W  c #FFA30F",
"Q  c #FFA512",
"!  c #C3883D",
"~  c #F08C3B",
"^  c #E5A33C",
"/  c #CF9F5A",
"(  c #FD9A6E",
")  c #576280",
"_  c #5A6483",
"`  c #5F6C8B",
"'  c #5D6887",
"]  c #626E8D",
"[  c #626B87",
"{  c #7B6F80",
"}  c #64708F",
"|  c #69728E",
" . c #797284",
".. c #667291",
"X. c #697594",
"o. c #6D7896",
"O. c #6E7B9B",
"+. c #717E9C",
"@. c #76819D",
"#. c #7A849F",
"$. c #7985A1",
"%. c #7E89A3",
"&. c #7E8DAC",
"*. c #828497",
"=. c #838698",
"-. c #838899",
";. c #9C928D",
":. c #A08381",
">. c #A09996",
",. c #AEA293",
"<. c #818CA5",
"1. c #838EA8",
"2. c #8C8CA0",
"3. c #8791AA",
"4. c #8A93AB",
"5. c #9794A1",
"6. c #8795B4",
"7. c #8996B2",
"8. c #8E9AB5",
"9. c #8D9CBB",
"0. c #949DB4",
"q. c #929FB9",
"w. c #9EA2AF",
"e. c #94A1BC",
"r. c #9DA6BA",
"t. c #A2A3B1",
"y. c #A5A9B5",
"u. c #A5ACBE",
"i. c #A9ACB8",
"p. c #AEB1BD",
"a. c #B0A4A7",
"s. c #CAAA9B",
"d. c #C0B7BB",
"f. c #EAC8B5",
"g. c #9AA7C1",
"h. c #A6AFC3",
"j. c #A6B3CA",
"k. c #ABB4C7",
"l. c #B4B9C5",
"z. c #B4BBC9",
"x. c #B1B5C1",
"c. c #AFBBD0",
"v. c #BBC1CF",
"b. c #BDC3D0",
"n. c #C9C9CE",
"m. c #D3C8C7",
"M. c #D5CAC9",
"N. c #D3C7C6",
"B. c #C6CAD2",
"V. c #C9CCD3",
"C. c #C5CDDB",
"Z. c #D7CFD0",
"A. c #DAD3D4",
"S. c #D5D7DD",
"D. c #D7D9DE",
"F. c #D8DADF",
"G. c #CCD2DD",
"H. c #FDD2C1",
"J. c #EFDAD3",
"K. c #FFE1D2",
"L. c #CFD7E4",
"P. c #D6DBE3",
"I. c #D7DCE3",
"U. c #D7DBE3",
"Y. c #DADDE4",
"T. c #D9DDE4",
"R. c #D0D7E2",
"E. c #DFE2E8",
"W. c #DFE0E5",
"Q. c #E2E5EA",
"!. c #E3E5EB",
"~. c #EBEEF3",
"^. c #E5EBF1",
"/. c #EDF1F5",
"(. c #F2F3F5",
"). c #F2F4F5",
"_. c #F4F6F8",
"`. c #FBFDFD",
"'. c #FBFCFD",
"]. c #FCFEFE",
"[. c #FDFFFE",
"{. c white",
"}. c #FEFFFF",
"|. c #FDFEFE",
" X c #FDF5F0",
/* pixels */
"                                                                                                                                ",
"                                                                                                                                ",
"                                                                                                                                ",
"                                                                                                                                ",
"                                                                                                                                ",
"                                                                                                                                ",
"                                                                                                                                ",
"                                                                                                                                ",
"                                                                                                                                ",
"                                                                                                                                ",
"                                                                                                                                ",
"                                                                                                                                ",
"                                                ; ; ; ; ; ; = ; ; ; ; :                                                         ",
"                                                z n n x n n x M n z d 9                                                         ",
"                                        ; & & v y.V.V.B.V.B.B.V.V.l.4.| 9 ; ; :                                                 ",
"                                        x x x -.D.}.}.}.}.}.}.}.}./.C.0._ a a a                                                 ",
"                                ; & & z i.V.V.S.).}.}.}.}.}.}.}.}.`.).G.0.#.#.| 9 ;                                             ",
"                                z n z *.S.}.}.}.}._.Q.P.P.T.U.U.I.I.W.C.r.7.7.$.c 9                                             ",
"                            & v y.V.V.S.(.}.}.}.}.Q.u.3.4.4.4.4.4.4.4.3.$.+.+.@.#.| a :                                         ",
"                            h *.S.}.}.}.`.}.}._.!.v.%.` ` ] } } ..] ] } } } ] O.3.+.a :                                         ",
"                        & h y.D.).}.}.}.`.}.}.Q.h.%.o.] } } } ......} } } } ..X.+.[ 9 :                                         ",
"                        h *.S.}.}.`.`.`.`.}.}.I.1.` ] ....] _ c c ) ` ............c 3 ;                                         ",
"                    & h y.S.).}.}.`.`.`.}.}.}.T.4.] } ...._ s 2 2 a _ ............) 3 ; : :                                     ",
"                    h *.S.}.}.`.`.}.`.`.}._.Q.v.%.} } } _ ) n n x m ] ............] M g 3 :                                     ",
"                & h y.S.).}.}.`.`.}.`.}.}.Q.u.%.o....._ a x i.V.V.l.$.] ........] <.l.y.h ;                                     ",
"                v *.S.}.}.`.}.}.`.`.`.}.}.U.4.` ] ....c 1 v n.}.}.Y.4.] } ....] ] 0.W.V.n =                                     ",
"            ; z y.D.).}.}.`.}.}.}.`.`.}.}.I.3.` ] ....c - j n.}.}.Y.4.......X...] 4.Q.V.n =                                     ",
"            ; n V.}.}.}.}._.W.W._.`.`.}.}.I.4.] } ....l - 6 5.n.n.p.#.[ c v v c ] -.p.y.n 3                                     ",
"            ; n V.}.}.}.}.Q.u.u.E.`.}.}.}.T.4.] } ..X.c - $ q w w v [ m , @ @ , _ [ v j c l 4 :                                 ",
"            ; h t.V.V.B.V.x.@.1.P.}.}.}.}.I.4.] } ....c 3 - $ = $ 5 _ z # X X + q f < 5 m _ 4 :                                 ",
"            : 2 g n n n n M ' 3.P.}.}.}.}.T.4.] } ....] c z l l z m ] z # X X o + < d c ] _ 7 :                                 ",
"            > : ; ; ; ; ; 3 _ 0.Y.}.}.}.}.I.4.` } ..} ..X.X.X.X.X.X.X.z # . X o X # z o.X.m 4 :                                 ",
"                        ; 9 o.h.E.}.`.}.}.P.3.] ] X...........X.X...X.z # X o X . # z X.X.) 8 :                                 ",
"                        ; g 4.C./.}.}.}.}.Q.u.%.o.} } ..............X.z - O O O . # z X.X.) 8 :                                 ",
"                        ; z z.).`.`.`.}.}._.Q.v.<.] ] ........} ....X.c 2 $ $ $ O # v X.X._ 8 :                                 ",
"                        ; z i.T.).}.}.`.`.}.}.I.3.] ] X.} ..........} _ s 8 2 5 # , c .._ l 8 :                                 ",
"                            z -.S.}.}.`.`.}.}.T.3.[ ] } ............] [ _ ) ) c c c [ _ s 2                                     ",
"                            & x B.}.}.`.`.}.}.Q.u.<.X.} ] } } ] ] o.<.3.$.+.+.O.X...X._ 8 :                                     ",
"                            = x V.}.}.`.`.`.}._.^.z.%.` ] ] ] ] ] %.b.C.r.7.7.1.O.....) 8 :                                     ",
"                            ; z i.D._.}.}.}.}.}.}.Q.h.3.1.4.4.4.4.u.!.^.c.q.q.8.%.X.' l 4 :                                     ",
"                                z *.S.}.}.}.}.}.}._.Q.P.I.I.I.I.P.Q._.^.c.q.q.q.8.+.k 2                                         ",
"                                & f a.M.m.A.).}.}.}.}.}.}.}.}.}.}.'.~.S.h.q.q.0.1.X.a ;                                         ",
"                            ; ; = < t p I :.A.}.}.}.}.}.}.}.}.}.}.^.C.h.e.e.g.&.c 9                                             ",
"                            z n n V p i r I a.M.m.m.m.m.m.A.W.^.^.L.h.9.q.8.2. .f 3                                             ",
"                        & v y.V.V.V.M.d.5.{ I I I I I I I Y t.c.z.j.r.e.g.2.p t x l 4 :                                         ",
"                        h -.S.}.}.}.}./.L.t.Y I I I I i r y C *.*.*.*.*.*.{ r w B ) 4 :                                         ",
"                    & h y.S.).}.}.}.}._.~.W.A.m.N.m.M.d.5.C y r e e e e e e b B } c 4 :                                         ",
"                    h *.S.}.}.`.`.}.}.}.}.}.`.}.|.|.|.~.C.t.Y U S A S D D i Z O.o._ s 3                                         ",
"                ; z y.D.).}.}.'.`.}.}.}.}.}.}.}.}.}.}._./.E.A.s.K F H R H / ;.&.O.] _ l 4 :                                     ",
"                ; n V.}.}.|.'.}.}._.W.E._.`.`.`.}.`.`.}.`.}.`.H.L J E Q W ^ ,.6.O...X.) 4 :                                     ",
"                ; n V.}.}.}.`.}.}.Q.u.u.E.}.`.}.`.`.`.}.`.}.`.H.L J E Q W ^ ,.6.O.X...) 4 :                                     ",
"                ; x V.}.}.}.}.(.S.p.@.1.P.}.}.`.`.}.`.`.`.`.`.H.P J E W W ^ ,.6.+.....) 4 :                                     ",
"                ; x V.}.}.}.}.D.*.c _ 3.P.}.}.}.}.`.`.`.}.`.'.H.P G E W W ^ ,.6.+....._ 4 :                                     ",
"                ; x y.V.V.V.V.w.g 1 ) 0.E.}.}.`.}.`.}.`.`.`.'.K.( ~ ~ ^ ^ / >.%.] ) _ k 4 :                                     ",
"                    z n n x n g 1 9 X.h.E.}.}.`.`.`.`.`.}.`.`. XK.f.a.,.,.>.#.` s 3 3 3                                         ",
"                    ; ; ; ; ; ; ; g 4.C.~.}.}.`.`.}.}.`.`.}.}.'./.L.j.8.7.&.O._ 0 3 > :                                         ",
"                                ; z l./.'.`.}.`.`.`.}.`.`.}.}./.C.j.e.8.$.O...` _ k 3 :                                         ",
"                                ; n B.}.}.`.`.`.}.`.`.}.}.).S.z.e.7.7.&.o.......X.) 4 ;                                         ",
"                                ; x V.}.}.`.`.`.`.`.}.}.}.D.*.M | @.@.o.X...} ..X.) 7 :                                         ",
"                                ; n B.}.}.}.}.`.`.}.}.).D.y.h 1 k m ` ] } ........) 4 :                                         ",
"                                ; x B.}.}.}.}.`.`.}.}.S.-.h     8 0 _ ............) 4 :                                         ",
"                                ; n B.}.}.`.`.`.`.(.S.y.h &     ; 8 m X.....} ....) 4 :                                         ",
"                                ; x V.}.}.}.`.}.}.S.*.h         ; 8 m ............) 4 :                                         ",
"                                ; n B.}.}.`.}.}.}.B.z &         : 8 m ............) 4 :                                         "
};
