/* XPM */
static char *result[] = {
/* columns rows colors chars-per-pixel */
"64 64 135 2 ",
"   c #16040D",
".  c #1C030A",
"X  c #170D0E",
"o  c #1B0D0D",
"O  c #1F150E",
"+  c #1B1C0E",
"@  c #0E0D17",
"#  c #0C0E18",
"$  c #130D12",
"%  c #180E11",
"&  c #1B1212",
"*  c #1B1D12",
"=  c #200E0C",
"-  c #23140E",
";  c #221B0F",
":  c #241410",
">  c #281711",
",  c #231B11",
"<  c #2D1B14",
"1  c #321E15",
"2  c #351F18",
"3  c #1F2010",
"4  c #162C12",
"5  c #1A2D12",
"6  c #1A3213",
"7  c #143B15",
"8  c #1B3A17",
"9  c #1F3E19",
"0  c #232312",
"q  c #2B2717",
"w  c #242A14",
"e  c #282B14",
"r  c #2C2E19",
"t  c #362117",
"y  c #362318",
"u  c #3B261A",
"i  c #342D1B",
"p  c #392A1B",
"a  c #253216",
"s  c #2D3117",
"d  c #253618",
"f  c #253E1A",
"g  c #2A3C1A",
"h  c #3B311D",
"j  c #353C1F",
"k  c #3E3620",
"l  c #353F20",
"z  c #3D3A20",
"x  c #442D1F",
"c  c #462E20",
"v  c #482F20",
"b  c #4C3323",
"n  c #433B22",
"m  c #4A3B25",
"M  c #523726",
"N  c #533927",
"B  c #563B28",
"V  c #5A3E2A",
"C  c #0E4616",
"Z  c #134317",
"A  c #104817",
"S  c #154618",
"D  c #1A461A",
"F  c #144C19",
"G  c #1C4C1B",
"H  c #16531B",
"J  c #1A541C",
"K  c #1E5B1F",
"L  c #24451C",
"P  c #2B441D",
"I  c #234B1D",
"U  c #2B4A1E",
"Y  c #34401F",
"T  c #22531F",
"R  c #2C501F",
"E  c #215B1F",
"W  c #1F5E20",
"Q  c #2D4720",
"!  c #2D4C21",
"~  c #344521",
"^  c #344922",
"/  c #3C4A25",
"(  c #265520",
")  c #2D5521",
"_  c #235E21",
"`  c #2C5B23",
"'  c #345122",
"]  c #335A23",
"[  c #3B5D25",
"{  c #236322",
"}  c #2C6324",
"|  c #276A25",
" . c #2A6C26",
".. c #316626",
"X. c #3E6527",
"o. c #336B27",
"O. c #376C28",
"+. c #2B7127",
"@. c #2F7329",
"#. c #32752A",
"$. c #347B2C",
"%. c #397D2D",
"&. c #4A4227",
"*. c #424827",
"=. c #464B28",
"-. c #4C4C2A",
";. c #5E422C",
":. c #544B2C",
">. c #594E2E",
",. c #5E4E30",
"<. c #5F5030",
"1. c #63442E",
"2. c #664730",
"3. c #684731",
"4. c #654B31",
"5. c #6B4B33",
"6. c #714F35",
"7. c #655033",
"8. c #6B5135",
"9. c #735237",
"0. c #755338",
"q. c #785439",
"w. c #457F30",
"e. c #3A822F",
"r. c #3D8630",
"t. c #3E8931",
"y. c #408630",
"u. c #428C32",
"i. c #469235",
"p. c #4A9536",
"a. c #4C9837",
"s. c #4E9A38",
"d. c #529E3A",
"f. c #53A03B",
"g. c None",
/* pixels */
"g.g.g.g.g.g.g.g.g.g.g.g.g.g.g.g.g.g.g.g.g.g.g.g.g.g.g.g.g.g.g.g.g.g.g.g.g.g.g.g.g.g.g.g.g.g.g.g.g.g.g.g.g.g.g.g.g.g.g.g.g.g.g.g.",
"g.g.g.g.g.g.g.g.g.g.g.g.g.g.g.g.g.g.g.g.g.g.g.g.g.g.g.g.g.g.g.g.g.g.g.g.g.g.g.g.g.g.g.g.= = . g.g.g.g.g.g.g.g.g.g.g.g.g.g.g.g.g.",
"g.g.g.g.g.g.g.g.g.g.g.g.g.g.g.g.g.g.g.g.g.g.g.g.g.g.g.g.g.g.g.g.g.g.g.g.g.g.g.g.g.g.g.0 e a a w g.g.g.g.g.g.g.g.g.g.g.g.g.g.g.g.",
"g.g.g.g.g.g.g.g.g.g.g.g.g.g.g.g.g.g.g., , , , g.g.g.g.g.g.g., , , ; g.g.g.g.g.g.g.g.; P $.$.%.] 0 , g.g.; , ; g.g.g.g.g.g.g.g.g.",
"g.g.g.g.g.g.g.g.g.g.g.= = o = g.g.g., ) ..o.` 0 . - o % $ 0 ] ....` 0 X g.g.o = o - R @.e.p.a.p.w.o.a w ....f = g.g.g.g.g.g.g.g.",
"g.g.g.g.g.g.g.g.g.g.; P U U P - . 0 ! t.r.$.$.) ' ] U , . ; #.u.i.u.X.g   & f ' [ X.#.e.i.f.f.f.f.p...] i.i.O.f - g.g.g.g.g.g.g.",
"g.g.g.g.g.g.g.g.g.0 f #.e.t.%.g w Q t.s.i.e.$.r.p.d.e.U e P #.i.f.f.f.=.s g o.i.f.f.e.u.f.f.d.f.f.f.i.u.f.f.i.} ; g.g.g.g.g.g.g.",
"g.g.g.g.g.g.g.g.= P $.%.p.d.d.s.r.r.d.f.f.i.%.p.f.f.d.e.y.p.%.i.f.f.d.d.s.s.e.u.f.f.e.u.f.f.f.f.f.f.d.d.d.d.t.` - g.g.g.g.g.g.g.",
"g.g.g.g.g.g.g.g.. P e.p.d.f.f.f.s.s.f.f.f.d.a.d.f.f.f.s.s.d.p.d.f.f.f.f.f.f.s.u.t.s.s.s.f.f.f.f.d.f.f.f.d.u.) 0 - g.g.g.g.g.g.g.",
"g.g.g.g.g.g.g.g.d ..i.d.f.f.f.f.f.f.f.d.d.f.f.f.d.d.f.f.f.f.f.f.f.f.f.f.f.f.f.p.i.f.f.f.d.f.f.f.f.f.f.f.d.u...a - = g.g.g.g.g.g.",
"g.g.g.g.g.g.g.3 ..u.s.f.f.f.f.f.f.f.f.f.f.f.f.f.f.f.f.f.f.f.f.f.f.f.f.f.f.f.f.f.f.f.f.f.f.f.f.f.f.f.f.f.d.f.i.} 3 - = g.g.g.g.g.",
"g.g.g.g.g.g.+ Z  .%.e.f.f.f.f.f.f.f.f.f.f.f.f.f.f.f.f.f.f.f.f.f.f.f.f.f.f.f.f.f.f.f.f.f.f.f.f.f.f.f.f.f.d.d.u. .Z + = g.g.g.g.g.",
"g.g.g.g.g.= 0  .u.p.p.f.f.f.f.f.f.f.f.f.f.f.f.f.f.f.f.f.f.f.f.f.f.f.f.f.f.f.f.f.f.f.f.f.f.f.f.f.f.f.f.f.d.u.%. .Z + o g.g.g.g.g.",
"g.g.g.g.g.+ f e.d.f.f.f.s.f.f.f.f.f.f.f.f.f.f.f.f.f.f.f.f.f.f.f.f.f.f.f.f.f.f.f.f.f.f.f.f.f.f.f.f.f.f.f.d.u.t.%.W 5 * % g.g.g.g.",
"g.g.g.g.O 5 { s.f.f.f.f.f.f.f.f.f.f.f.f.f.f.f.f.f.f.f.f.f.d.f.f.f.f.f.f.f.f.f.f.f.f.f.f.f.f.f.f.f.f.f.f.f.f.f.s.%.W 5 O g.g.g.g.",
"g.g.g.g.- L e.s.f.f.f.f.f.f.f.f.f.f.f.f.f.f.f.f.f.f.f.f.f.f.f.f.f.f.f.f.f.f.f.f.f.f.f.f.f.f.f.f.f.f.f.d.f.f.f.d.a.%.P = g.g.g.g.",
"g.g.g.& 4 E u.f.f.d.f.f.f.f.f.f.f.f.f.f.d.f.f.f.f.f.f.f.f.f.f.f.f.f.f.f.f.f.f.f.f.f.f.f.f.f.f.f.f.f.f.f.f.f.d.f.f.d...4 & g.g.g.",
"g.g.g.- d T @.p.d.d.d.f.f.f.f.f.f.f.f.f.f.f.f.f.f.f.f.f.f.f.f.f.f.d.f.f.f.f.f.f.f.f.f.f.f.f.f.f.f.f.f.f.f.f.f.f.d.p.+.7 O g.g.g.",
"g.g.% : x j J #.p.d.f.f.f.f.f.f.f.f.f.f.f.f.f.f.f.f.f.f.f.f.f.f.f.f.f.f.f.f.f.f.f.d.f.f.f.f.f.f.f.f.f.f.f.f.d.f.d.t.{ 7 O g.g.g.",
"g.g.% : x m j G #.i.d.f.f.f.f.f.f.f.f.f.f.f.f.f.f.f.f.f.f.f.f.f.f.f.f.f.f.f.f.f.f.f.f.f.f.f.f.f.f.f.f.f.f.f.d.d.d.y.{ 7 O % g.g.",
"g.g.$ : v N n Z | u.f.f.d.f.f.f.f.f.f.f.f.f.f.f.f.f.f.f.f.f.f.f.f.f.f.f.f.d.f.f.f.f.f.f.f.f.f.d.f.f.d.d.f.f.f.d.u.| H 7 O % g.g.",
"g.g.$ : u M n S  .t.s.d.f.f.f.f.f.f.f.f.f.f.f.f.f.f.f.f.f.f.f.f.f.f.f.f.f.f.f.f.f.f.f.f.f.f.f.f.f.f.f.f.d.s.p.u. .F 7 4 & % g.g.",
"g.g.g.$ O u h F | $.r.d.f.f.f.f.f.f.f.f.f.d.f.f.f.f.f.f.f.f.f.f.f.f.f.f.f.f.f.f.f.f.f.f.f.f.f.f.f.f.f.f.d.t.$.+.F Z 5 O @ g.g.g.",
"g.g.g.@ o w D Z F { %.d.f.f.f.f.f.f.f.f.f.f.f.f.f.f.f.f.f.f.f.f.f.f.f.f.f.f.f.f.f.f.f.f.f.f.f.f.f.f.f.f.d.s.t.| Z l y O @ g.g.g.",
"g.g.g.& 2 6 F _  .%.i.d.f.f.f.f.f.f.f.f.f.f.f.f.f.f.f.f.f.f.f.f.f.f.f.f.f.f.f.f.f.f.f.f.f.f.f.f.f.f.f.d.f.f.a.e._ Q i y & g.g.g.",
"g.g.g.: h Q W $.a.f.f.f.d.f.f.f.f.f.f.f.f.f.f.f.f.f.f.f.f.f.f.f.f.f.f.f.f.f.f.f.f.f.f.f.f.d.f.f.f.f.f.f.f.f.f.s.r._ Q p - g.g.g.",
"g.g.g.- 7 { #.e.s.f.d.f.f.f.f.f.f.f.f.f.f.f.f.f.f.f.f.f.f.f.f.f.f.f.f.f.f.f.f.f.f.f.f.f.f.f.f.f.f.f.f.f.f.f.f.f.s.e._ 7 - g.g.g.",
"g.g.% O 7 { e.p.d.f.f.f.f.f.f.f.f.f.d.f.f.f.f.f.f.f.f.f.f.f.f.f.f.d.f.f.f.f.f.f.f.f.f.f.f.f.f.f.f.f.f.f.f.f.f.f.d.r.{ 7 O % g.g.",
"g.g.% O 7 { r.s.d.d.f.f.f.f.f.f.f.f.f.f.f.f.f.f.f.f.f.f.f.f.f.f.f.f.f.f.f.d.f.f.f.f.f.f.f.f.f.f.f.f.f.f.f.f.f.f.d.e.{ 7 O $ g.g.",
"g.g.% O 7 { t.d.f.d.f.f.f.f.f.f.f.f.f.f.f.f.f.f.f.f.f.f.f.f.f.f.f.f.f.f.f.f.f.f.f.f.f.f.f.f.f.f.f.f.f.f.f.f.f.f.d.t._ 7 O % g.g.",
"g.g.% & 7 { r.s.f.f.f.f.f.f.f.f.f.f.f.f.f.f.d.f.f.f.f.f.f.f.f.f.f.f.f.f.f.f.f.f.f.f.f.f.f.f.f.f.f.f.f.f.f.f.f.f.d.r.{ 7 & % g.g.",
"g.g.< p 7 { e.t.s.f.f.f.f.f.f.f.f.f.f.f.f.f.f.f.f.f.f.f.f.f.f.f.f.f.f.f.f.f.f.f.f.d.f.f.f.f.f.f.f.f.f.d.f.f.f.s.t.%.{ Z p < g.g.",
"g.o 1 b s (  .$.u.p.p.d.f.f.f.f.f.f.f.f.f.f.f.f.f.f.f.f.f.f.f.f.f.d.f.f.f.f.f.f.f.f.f.f.f.f.f.f.f.f.f.f.f.a.i.u.$. .( g M < o g.",
"g.o < b N l W +.$.$.r.d.f.f.f.f.f.f.f.f.f.d.f.f.f.f.f.f.f.f.f.f.f.f.f.f.f.f.f.f.f.f.f.f.f.f.f.f.f.f.f.f.s.t.$.$.+.W l N M < o g.",
"g.o < N 3.6.-.W  .u.d.d.f.f.f.f.f.f.f.f.f.f.f.f.f.f.f.f.f.f.f.f.f.f.f.f.f.f.f.f.f.f.f.f.f.f.f.f.f.f.f.f.f.s.u. .G -.8.4.M 1 o g.",
"@ o y 2.0.>.^ { @.u.f.f.d.f.f.f.f.f.f.f.f.f.f.f.f.f.f.f.f.f.f.f.f.f.f.f.d.f.f.f.f.f.f.f.f.f.f.f.f.f.f.d.f.f.s.r.{ / ,.0.1.y o # ",
"# X u q.q./ H $.r.i.f.f.f.f.f.f.f.f.f.f.f.f.f.f.f.f.f.f.f.f.f.f.f.f.f.f.f.f.f.f.f.f.f.f.f.f.f.f.f.f.f.f.f.f.s.i.$.H / q.0.u X @ ",
"# % u 9.q./ G $.i.d.f.f.f.f.f.f.f.f.f.d.f.f.f.f.f.f.f.f.f.f.f.f.f.f.f.f.f.f.f.f.f.f.f.f.f.f.f.f.f.f.f.f.f.f.t.#.@.J / q.9.u % @ ",
"# X u 9.q./ H $.s.f.d.f.f.f.f.f.f.f.f.f.f.f.f.f.f.f.f.f.f.f.f.f.d.f.f.f.f.f.f.f.f.f.f.f.f.f.f.f.f.f.f.f.f.f.#.G G l ;.q.0.p X # ",
"# $ < b V ~ H %.s.f.f.f.d.f.f.d.f.f.f.f.f.f.f.f.f.f.f.d.f.f.f.f.f.f.f.f.f.f.f.f.f.f.f.f.f.f.f.f.f.f.f.f.f.f.y. ._ P m V b < $ # ",
"# g.$ - c l I  .r.u.s.d.d.d.f.f.f.f.f.f.f.f.f.f.f.f.f.f.f.f.f.f.f.f.f.f.f.f.f.f.f.f.f.f.f.f.f.d.f.f.f.f.f.f.f.s.e.H f p - $ g.g.",
"g.g.% - c b z F F { t.d.f.d.f.f.f.f.f.f.f.f.f.f.f.f.f.f.f.f.f.f.f.f.f.f.f.f.f.f.f.f.f.f.f.f.f.f.d.d.f.f.f.f.f.f.a._ Z 8 ; % g.@ ",
"g.g.% : c N z S W e.a.f.f.d.f.d.d.f.f.f.f.d.f.f.f.f.f.f.d.f.f.f.d.f.f.f.d.f.f.f.d.f.f.d.d.f.f.f.s.t.i.f.f.f.f.s.e.J Q :.c > % # ",
"g.g.$ : c V &.S +.t.p.f.f.s.p.d.f.f.f.f.d.d.d.a.a.f.f.f.f.s.p.a.f.f.f.d.d.d.a.p.f.f.d.f.d.p.s.f.s.e.t.a.f.f.s.t.$.H / 0.1.t % # ",
"g.g.$ - v 5.4.D } @.r.s.d.u.$.a.f.f.f.f.f.d.a.$.r.a.f.f.s.a.e.i.f.f.d.f.f.a.#.r.f.f.d.d.p.#.u.d.a.e.+.%.a.a.t.#. .G *.0.0.u o # ",
"g.g.% > 1.q.5.m D W e.a.f.$.W p.f.f.f.f.f.a.#.W W r.s.f.i.$.$.i.f.f.d.d.a.$.J #.f.f.d.i.@.J r.a.%.$.K K %.%.e. .G z 1.0.8.u X # ",
"g.g.$ : 2.q.5.M k Q { r.u. .F $.s.f.f.f.i.$.W w 9 { r.t.@.W H #.a.f.f.p.#.W C { i.f.i. .H C +.t.#.W A A J H H ( -.N M 1.6.u X # ",
"# g.% > 2.q.5.M V z Q { { ( Q { r.a.i.i.t.| 7 q q Q { { ( f ^ `  .%.p.t.| Z Q ) +.u.#.W Z ^ ` { { L P ^ ^ ^ ^ =.0.2.V 1.2.y X # ",
"# g.$ > 2.0.2.N 5.3.m I D Y m L _ #.#.@.@.} D i c n L D ~ V 6./ D D | $.{ I 7.-.T +.J Z Q 8./ F L m 5.q.0.0.9.9.9.9.0.5.N < o @ ",
"# g.$ > 2.2.N M 5.9.5.7.7.8.5.m L F F G F ) ,.N b N 5.7.5.5.0.8.;.n G A ! 7.9.8.:.G C ^ 8.9.8.7.5.5.0.9.0.0.0.0.0.0.0.5.M 1 % # ",
"# g.$ : N B N 1.9.0.0.0.q.q.6.3.:.-.-.-.=.,.0.V V 4.0.0.0.0.0.0.9.1.-.-.>.q.0.0.8.-.=.<.q.0.9.q.0.0.0.9.0.0.2.2.9.0.0.9.2.t o # ",
"# g.$ - x N 1.0.9.9.0.0.9.9.9.q.0.q.0.0.0.0.6.;.2.q.0.0.0.0.0.0.0.0.q.0.q.0.9.0.0.q.q.0.9.0.q.9.0.0.0.0.0.0.;.V 9.0.9.0.9.u % # ",
"g.g.$ - b 1.0.0.9.q.0.0.q.q.9.9.0.0.0.0.0.0.0.0.0.0.0.0.0.0.0.0.0.0.0.9.9.9.0.0.0.0.0.0.0.0.0.9.0.0.0.0.0.0.;.N 8.0.0.0.9.u o # ",
"g.g.$ : x 2.0.0.0.9.9.0.9.9.9.q.0.0.0.0.0.9.0.0.0.0.0.0.0.0.0.0.0.0.0.1.;.9.0.0.0.0.0.0.0.0.0.0.0.0.0.0.0.0.1.b V 5.0.0.8.u X # ",
"g.g.$ : c 2.0.0.9.9.q.0.0.q.q.9.0.0.0.0.0.0.0.0.0.0.0.0.0.0.0.0.0.0.0.;.B 0.0.0.0.0.0.0.0.0.0.0.0.0.0.0.0.0.5.;.M 5.0.0.9.u o g.",
"g.g.$ : u 1.0.0.9.q.9.0.0.9.9.q.0.9.0.0.0.9.0.0.0.0.0.0.0.0.8.0.0.9.9.;.B 9.0.9.0.0.0.0.9.0.0.9.0.0.0.0.0.8.q.5.N 5.q.9.5.u o g.",
"g.g.g.@ : b q.0.9.q.q.9.9.9.9.9.9.0.0.0.0.0.9.6.0.0.0.0.0.0.0.0.0.0.0.;.V 9.9.9.0.0.0.0.0.9.9.9.9.0.0.0.q.9.q.5.N 3.0.5.N 1 o g.",
"g.g.g.@ o b q.0.9.9.9.9.q.9.8.;.5.0.0.0.9.0.0.V 2.0.0.0.0.0.0.0.9.0.9.;.b ;.9.0.0.0.0.0.0.9.1.1.9.0.0.0.0.9.0.5.N N V M 1 - g.g.",
"g.g.g.@ $ u V 0.q.q.0.9.9.0.9.N 3.q.0.0.0.0.1.x N 0.0.8.0.0.0.0.q.0.2.;.b u V 5.q.q.9.9.0.0.;.;.q.0.9.9.9.q.5.1.N M x 1 - g.g.g.",
"g.g.g.g.g.$ 1 1.2.8.0.0.0.9.5.b B 5.0.0.5.V c > c 6.0.0.0.0.0.5.1.1.b c u - u V 1.1.9.0.0.5.N b 2.9.q.9.9.5.N x x v y - = g.g.g.",
"g.g.g.g.g.@ & : : b 9.9.9.2.b > - x 6.6.b - : - y V 5.0.9.9.8.c : : : : O $ : : : < ;.q.5.N t - 1 2.q.9.5.u : - > - - g.g.g.g.g.",
"g.g.g.g.g.g.# $ $ < u u u t < & @ , u u > $ $ $ : 2 u u u u u > $ $ % $ $ # $ $ $ % t u u < & $ & y u u u & @ X % g.g.g.g.g.g.g.",
"g.g.g.g.g.g.g.g.g.$ X X X X o # g.$ % % $ g.g.g.$ o % X X X % $ g.g.g.g.g.g.g.g.g.g.$ X o O $ g.# X X o X @ g.g.g.g.g.g.g.g.g.g.",
"g.g.g.g.g.g.g.g.g.# # # # # # # g.# # # # g.# g.# # # @ # # # @ g.g.g.g.g.g.g.g.g.g.# # # # # g.# # # # # @ g.g.g.g.g.g.g.g.g.g."
};
