/* XPM */
static char *_fb27fdb97c745b78d9e2dc4648bcb4dSRJbnR1MAOK5FR1t[] = {
/* columns rows colors chars-per-pixel */
"64 64 157 2 ",
"   c None",
".  c #110D14",
"X  c #161516",
"o  c #171817",
"O  c #1C1916",
"+  c #161718",
"@  c #171B19",
"#  c #181C1A",
"$  c #231D15",
"%  c #281F14",
"&  c #1A231D",
"*  c #1F291F",
"=  c #272015",
"-  c #2B2215",
";  c #21261C",
":  c #292518",
">  c #262C1D",
",  c #2A2E1E",
"<  c #312513",
"1  c #362A14",
"2  c #3C2C14",
"3  c #302718",
"4  c #332B19",
"5  c #2F381F",
"6  c #3F3216",
"7  c #33331D",
"8  c #3D361D",
"9  c #3E391C",
"0  c #1A2620",
"q  c #1C2C23",
"w  c #1E3126",
"e  c #1E3529",
"r  c #1F3C2E",
"t  c #223324",
"y  c #293725",
"u  c #223926",
"i  c #2D3B24",
"p  c #213D2D",
"a  c #323B24",
"s  c #412E13",
"d  c #453313",
"f  c #4C3714",
"g  c #4C3814",
"h  c #41361F",
"j  c #47391D",
"k  c #4B3B1C",
"l  c #543D14",
"z  c #523F19",
"x  c #2E4027",
"c  c #25442D",
"v  c #2B442A",
"b  c #294B2F",
"n  c #334527",
"m  c #3A4524",
"M  c #374928",
"N  c #3A512C",
"B  c #234430",
"V  c #274D33",
"C  c #2A4E32",
"Z  c #2A5435",
"A  c #2D5B37",
"S  c #2E5C38",
"D  c #315633",
"F  c #395631",
"G  c #335934",
"H  c #3B5A31",
"J  c #355E38",
"K  c #2F6039",
"L  c #3D6737",
"P  c #32643B",
"I  c #3B6338",
"U  c #346B3D",
"Y  c #396F3E",
"T  c #3E733F",
"R  c #5B4315",
"E  c #5D4719",
"W  c #5F491A",
"Q  c #624C1A",
"!  c #67511D",
"~  c #68531E",
"^  c #4C4023",
"/  c #404F26",
"(  c #534524",
")  c #5D4A22",
"_  c #415227",
"`  c #435428",
"'  c #485D2C",
"]  c #405F33",
"[  c #604F27",
"{  c #6A5523",
"}  c #6E5822",
"|  c #6A572A",
" . c #6E592A",
".. c #735C25",
"X. c #745F2C",
"o. c #4D612B",
"O. c #476734",
"+. c #4C6C35",
"@. c #416D3D",
"#. c #496F3A",
"$. c #43753F",
"%. c #4D7B3D",
"&. c #537235",
"*. c #5C7632",
"=. c #50773A",
"-. c #537E3F",
";. c #77612B",
":. c #7A632B",
">. c #637F34",
",. c #417740",
"<. c #457B41",
"1. c #4B7E42",
"2. c #5F853B",
"3. c #678536",
"4. c #72963C",
"5. c #4D8143",
"6. c #538744",
"7. c #588440",
"8. c #558945",
"9. c #598C46",
"0. c #5E9146",
"q. c #628E40",
"w. c #639444",
"e. c #669946",
"r. c #6A9C46",
"t. c #6EA047",
"y. c #73A446",
"u. c #76A947",
"i. c #78AA47",
"p. c #7BAB46",
"a. c #7BAC47",
"s. c #7EAF47",
"d. c #73A648",
"f. c #77AB48",
"g. c #79AD49",
"h. c #7AAD48",
"j. c #7CAF48",
"k. c #7FB047",
"l. c #7EB148",
"z. c #81A940",
"x. c #82AB41",
"c. c #87B142",
"v. c #82B246",
"b. c #81B147",
"n. c #84B447",
"m. c #89B544",
"M. c #88B847",
"N. c #8AB946",
"B. c #8BB845",
"V. c #8FBD47",
"C. c #92C047",
"Z. c #97C547",
"A. c #97C648",
"S. c #98C748",
"D. c #99C949",
"F. c #9CCC49",
"G. c #9ED04A",
/* pixels */
"                                                        . . . X . . X .                                                         ",
"                                                        X O X X X X X O                                                         ",
"                                                        > > > > > > > >                                                         ",
"                                                      i m / ` _ ` ` N m 5                                                       ",
"                                                  X ; m o.*.3.3.3.>.*.o.m ; X                                                   ",
"                                                . X > _ *.4.x.c.c.x.4.*./ > o .                                                 ",
"                                                # ; a ' 3.x.C.S.D.V.x.3.' a ; #                                                 ",
"                                              ; t i N &.4.m.S.G.G.S.m.4.&.N i t *                                               ",
"                                          X & t v H O.2.y.N.A.F.F.Z.B.y.2.+.H v y * X                                           ",
"                                        X o * i F #.7.r.p.N.C.Z.Z.C.B.p.r.7.$.N i * o .                                         ",
"                                        . X ; x O.1.w.d.x.N.V.C.C.V.m.b.t.w.-.I i ; X X                                         ",
"                                        . X ; n O.7.r.f.l.n.N.N.N.N.n.k.f.r.2.O.n ; X .                                         ",
"                                        . X ; n +.w.d.f.j.k.b.b.b.b.k.l.f.t.w.&.n ; X .                                         ",
"                                        X X > M &.3.d.f.h.a.a.a.a.a.a.a.h.d.2.&.M ; o X                                         ",
"                                        X & y N &.q.y.f.u.i.i.u.u.u.i.u.f.y.w.&.N t * X                                         ",
"                                      & * w v H =.w.r.d.u.d.u.u.u.u.u.u.d.t.2.-.H v w * &                                       ",
"                                  X # * e c D L 1.9.e.t.d.f.i.i.i.u.d.d.t.e.9.1.L D c e q # +                                   ",
"                                X X & w c A P $.5.8.0.e.t.y.u.i.i.u.y.t.e.w.8.5.$.P D c t & + .                                 ",
"                                o # 0 u Z P T %.5.6.0.0.r.t.y.d.d.y.t.r.w.0.8.5.$.T I C u * @ +                                 ",
"                              # # & w v A U ,.2.6.8.0.0.e.e.r.t.t.r.r.e.0.9.8.5.<.2.Y G v q 0 @ o                               ",
"                          o o & 0 q y C I T 5.6.8.8.9.0.0.0.w.w.e.e.w.0.0.9.8.8.5.5.5.P C u q 0 & o X                           ",
"                        X o o & 0 u B G L 2.6.8.9.8.9.9.0.0.0.0.9.0.0.9.9.9.9.9.8.6.1.Y D c u q 0 # X X                         ",
"                        X X # & w r C J Y 5.6.8.9.9.9.9.9.9.9.9.9.9.9.9.9.9.9.9.9.7.1.@.P b c w 0 # + X                         ",
"                        X X & * u V Z P T 5.5.6.8.8.9.9.9.9.8.9.9.8.9.9.9.9.8.6.6.5.<.$.P Z c e 0 # X X                         ",
"                        X X & * p Z S U Y T <.5.6.8.9.9.9.9.9.9.9.9.9.9.9.9.8.6.,.T T Y U K Z c q # X X                         ",
"                        X X & q B G P U U Y T <.5.6.9.9.9.9.9.8.8.9.9.9.9.9.6.5.2.T Y U U U A b t & X X                         ",
"                        . O & t C S U U U U Y T 5.5.6.6.6.6.6.6.6.6.8.6.6.6.5.1.T T U U U U K b t & X X                         ",
"                        X X & w C K U Y U U U T T <.5.5.1.5.5.5.1.1.5.1.5.1.1.,.T U U U U U K b t & X X                         ",
"                        X X & t b S U Y U U U T T T T ,.,.,.,.,.,.,.,.,.,.,.,.Y U U U U U U P b w & X X                         ",
"                        X X & t b K U U U U U U Y Y Y Y T Y Y U Y Y Y Y Y Y Y U U U U U U U K b t & X X                         ",
"                        X X # t c A P P U U U U U U U U U U U U U U U U U U U U U U U U U P A c * & X X                         ",
"                        X X & q c Z A P P U U U U U U U U U U U U U U U U U U U U U U P P K C c q & X X                         ",
"                        X + o q r B V S K U U U U U U U U U U U U U U U U U U U U U U P S Z B r 0 # o X                         ",
"                        X + # 0 e r V S S K U U U U U U U U U U U U U U U U U U U P P S Z B r e 0 # + X                         ",
"                        X X # 0 q r B V S S P U K P U K K K P P K K P K U K K U P P S S V B r q 0 # + X                         ",
"                        X X o 0 q r r V V S S S S S Z S S S S S S S S S S Z S S S S A V V B r q 0 o X X                         ",
"                        X X # & q r r B V V V V V V V V Z V V Z V Z V V V V V V Z V V V B B e w & o X X                         ",
"                        X + # * q r r B B B B B B B B B B B B B B B B B B B B B B B B B B p r w 0 # + X                         ",
"                        X + # & q e r r r r r B r B B B B r r B r B r B r B B B B r p r r r e q 0 # o +                         ",
"                          o o & 0 q w e r r B r r r r r r p p r r r r r r r r r r p r e e w q 0 # o o                           ",
"                          + o # & 0 0 q e r r r p p r r r B r r r r r B p r r r B B r e q q 0 & # o +                           ",
"                            o X + @ & 0 w r r r p p r B r r p p r B r r p p B r r r r e 0 & o o o o                             ",
"                              X + + # 0 q e r p p u u p p p p i p p B p p y p p r r e q 0 # X X X                               ",
"                              X X X + & 0 q w t t u y y i a a a a a i y y t t u w w q 0 # o X X X                               ",
"                                X + + # & 0 0 0 * > , 7 7 9 9 h j 9 9 7 7 , > * 0 0 0 # # + + X                                 ",
"                                    + o @ @ # $ = : , 1 6 d f f g g d d 1 , : = $ O # + + +                                     ",
"                                      + + O # $ % < 1 2 d g l l l l f d 2 1 3 % $ # O + +                                       ",
"                                      O O $ $ % < 1 s d f l l l l l l f d s 1 < % $ $ O O                                       ",
"                                      O $ $ % < 2 s d f l R Q R E R R l f d s 2 < % $ $ $                                       ",
"                                      $ $ : - 1 2 s f l l E Q Q Q Q E R l f d 2 1 3 = = $                                       ",
"                                      $ % - < 1 s d f l Q Q ~ ~ ~ ~ Q E l f d 2 1 < = = $                                       ",
"                                      $ $ : - 1 2 s f l Q ~ } ....} ~ Q l f d 1 1 - = $ $                                       ",
"                                        $ $ - - 1 2 d k [ } X.......} [ z d 1 < - % % O                                         ",
"                                            $ $ % < 2 k ) } X.:.:.:.} [ k 2 3 - % $                                             ",
"                                              $ % - 4 j (  .X.:.X.X.| ) j 4 - % $                                               ",
"                                              O $ $ 3 h ( [ |  . .| [ ^ h - % $ o                                               ",
"                                                O $ : 4 h ( ( ( ( ( ( h 4 : $ O                                                 ",
"                                                                                                                                ",
"                                                                                                                                ",
"                                                                                                                                ",
"                                                                                                                                ",
"                                                                                                                                ",
"                                                                                                                                ",
"                                                                                                                                "
};
